<svg xmlns="http://www.w3.org/2000/svg" xmlns:xlink="http://www.w3.org/1999/xlink" viewBox="0 0 107.95 135.94"><defs><style>.cls-1{isolation:isolate;}.cls-2{fill:#dfa47c;}.cls-3{fill:#4961aa;}.cls-4{fill:#f8ba8c;}.cls-5{fill:#344a61;}.cls-6{fill:#0d3857;}.cls-7{fill:url(#linear-gradient);}.cls-8{fill:#c0a8b5;mix-blend-mode:multiply;}.cls-9{fill:#fff;}.cls-10{fill:#eaa879;}.cls-11{fill:#352e35;}.cls-12{fill:#5ab5e1;}.cls-13,.cls-15{fill:none;stroke-miterlimit:10;}.cls-13{stroke:#9c9b9b;stroke-width:0.86px;}.cls-14{fill:#9c9b9b;}.cls-15{stroke:#929191;stroke-width:0.43px;}.cls-16{fill:#b1b1b1;}.cls-17{fill:#868686;}.cls-18{fill:#c6c6c5;}</style><linearGradient id="linear-gradient" x1="51.22" y1="50.78" x2="77.34" y2="50.78" gradientUnits="userSpaceOnUse"><stop offset="0" stop-color="#2392cf"/><stop offset="1" stop-color="#3756ba"/></linearGradient></defs><title>Asset 3</title><g class="cls-1"><g id="Layer_2" data-name="Layer 2"><g id="Capa_1" data-name="Capa 1"><path class="cls-2" d="M38.61,64.52c.94,1.71,1.37,2.22-.79,4.48a4.21,4.21,0,0,1-6.41-.52c-.71-1.29,1.4-2,2.82-3.45.48-.47-1.26-.41-1.38-1.51C32.7,62.24,37.66,62.8,38.61,64.52Z"/><path class="cls-3" d="M59.69,39.85s-.62,2.1-1.61,5.2c-.5,1.56-1.09,3.37-1.77,5.31-.33,1-.69,2-1.07,3s-.78,2.06-1.24,3.15c-.22.52-.49,1.1-.76,1.66a9.82,9.82,0,0,1-1.34,2.1,14.18,14.18,0,0,1-1.49,1.41c-.45.38-.9.73-1.33,1.05C47.35,64,45.75,65.09,44.36,66S41.81,67.6,41,68.1l-1.3.78-3.08-4.7,1.15-.85c.74-.56,1.8-1.35,3-2.33s2.67-2.13,4.05-3.38c.34-.32.68-.64,1-.95a6.81,6.81,0,0,0,.72-.82s.13-.31.27-.65.33-.81.48-1.3c.32-.91.62-1.9.9-2.87s.56-2,.81-2.91c.51-1.9,1-3.7,1.33-5.24.75-3.1,1.2-5.15,1.2-5.15Z"/><path class="cls-4" d="M45.6,15.75c0,1.66.89,3,2,3s2-1.35,2-3-.89-3-2-3S45.6,14.08,45.6,15.75Z"/><path d="M.16,104.71,5,107.17s7.34,2.42,9,2.85c3.16.83,3.07-2.2,3.8-3.63l1-1.91-5-1.25s-9.84,0-12.17-.18S.16,104.71.16,104.71Z"/><path class="cls-5" d="M56.09,78.16l-2.47.11c-1.6.08-3.88.21-6.6.4s-5.9.44-9.21.8c-1.65.19-3.35.4-5,.67-.79.13-1.57.29-2.16.43-.28.06-.55.15-.49.09a6.29,6.29,0,0,0,.65-.55L31,80l.35-.4-.06.06-.11.14,0,0,0,0,0,0a.83.83,0,0,0,.08-.12l0-.06s0,0,0,0l-.06.09-.13.18-.29.48-.62,1.09c-.41.75-.83,1.54-1.24,2.33-.81,1.58-1.6,3.17-2.37,4.72-1.52,3.09-2.91,6-4.1,8.51l-3.93,8.38-6.94-2.7s1.16-3.54,2.89-8.87c.88-2.66,1.91-5.76,3.06-9.08.58-1.67,1.18-3.39,1.83-5.15.33-.88.66-1.78,1-2.7.18-.45.38-.93.58-1.41l.34-.76.21-.42.11-.22.09-.17.12-.21.26-.41.23-.34.1-.15,0-.07.33-.38.08-.08.15-.16a8.81,8.81,0,0,1,1.79-1.34,17.24,17.24,0,0,1,2.07-1c1.15-.46,2.15-.78,3.14-1.08,1.95-.6,3.78-1.07,5.55-1.5,3.53-.86,6.78-1.54,9.57-2.1s5.11-1,6.74-1.29l2.59-.46Z"/><path d="M8.37,112.27l5,2.13s7.49,1.93,9.15,2.24c3.2.62,2.91-2.39,3.55-3.87l.84-2-5-.91s-9.82.6-12.16.62S8.37,112.27,8.37,112.27Z"/><path class="cls-6" d="M52.25,75.24c.2,1.12,3.82,5.34,5.86,6.14,4.16,1.65,10.14.18,13.22-1.89,4.06-2.73,4.1-11.09,4.1-11.09L53,68S51.69,72.16,52.25,75.24Z"/><path class="cls-5" d="M54.81,83.61l-2.39-.18c-1.54-.1-3.75-.24-6.39-.34s-5.72-.19-8.82-.09c-.76,0-1.53.06-2.23.12s-1.4.16-1.62.18c0,0,0,0,.1-.1a4.52,4.52,0,0,0,1-.93c.09-.11.18-.23.26-.35l.12-.18c-.19.33.31-.57.25-.46v0l-.08.15,0,.07,0,0,0,0,.06-.12,0-.12v-.06l0,0-.08.21c-.25.62-.51,1.46-.76,2.27-1,3.32-1.93,6.83-2.79,10.09l-2.29,9L27,111.63l-7.32-1.33s.46-3.62,1.16-9c.37-2.71.8-5.88,1.27-9.27s1-7,1.68-10.75c.19-1,.36-1.88.64-3l.12-.43,0-.11.07-.22L24.8,77l.17-.43.1-.23.06-.16v0l.28-.49.17-.25c.11-.17.24-.33.36-.48a7.64,7.64,0,0,1,2.1-1.73,11.18,11.18,0,0,1,1.32-.65,23.15,23.15,0,0,1,3.53-1.11c1-.25,2-.44,2.89-.62,3.67-.67,6.93-1.05,9.74-1.37s5.12-.5,6.76-.64l2.6-.19Z"/><path class="cls-7" d="M51.61,71c.22,3.15,23.74.16,23.74.16s3.31-13.31,1.39-26C75,34,68.84,30.08,65.28,29.57c-4-.58-7.47-1-10.58,1.77C49.81,35.67,50.91,41.46,53,51.07,55.1,61.24,51.46,69,51.61,71Z"/><path class="cls-4" d="M51.59,62.23c.42,1.92.68,2.52-2,4.08a4.22,4.22,0,0,1-6-2.31c-.32-1.44,1.92-1.57,3.69-2.51.58-.32-1.1-.75-.91-1.84C46.56,58.38,51.17,60.32,51.59,62.23Z"/><path class="cls-8" d="M60.47,39.72S62.7,52.1,62.05,53.89s-5,3.21-8.43,4.65c.06,3.31-.65,3.23-.87,7,4.25,1,15.06-2.69,15.41-3.29,3.16-4,3.79-12.54,2.45-15.75C71.41,44.67,60.47,39.72,60.47,39.72Z"/><path class="cls-4" d="M55.37,34c-.74-3,1.82-3.4-.29-6.86-1.11-1.83,10.31-5.81,8.56-2.89a9.06,9.06,0,0,0-.9,4.18C59.68,31.07,56.1,37,55.37,34Z"/><polygon class="cls-9" points="62.9 27.52 55.2 32.27 55.62 31.12 52.95 33.28 54.63 33.25 55.62 36.31 63.43 28.72 62.9 27.52"/><path class="cls-4" d="M47.87,23.22a7.22,7.22,0,0,0,5.82,5.19c1.72.27,8.49.55,9.45-2.94.61-2.22,3.5-5.35,3.69-7.19a62.63,62.63,0,0,0,.62-8.94C67,3,63.18.18,57,.63c-6.68.49-10,4.77-10,11.46C47,14.76,47.22,20.79,47.87,23.22Z"/><path d="M51.22,1.07C55.61-.21,63.83-1.16,66.31,3.25c1.21.9,2.71,7.92,2.71,9.48,0,8.77-4.45,11.43-4.81,10.49a7.78,7.78,0,0,0-.39-3.67,23.58,23.58,0,0,1-2.5-2.47c-.18-.34-2.37-5-5.71-7.07s-8-1.54-8-2.39C46,5.42,49.45,1.59,51.22,1.07Z"/><path d="M48.25,8.77c-.11.6-.14,1.82-.3,3.4A33.21,33.21,0,0,0,48,18s-.39.63-.61.69c-1-6.61-1.54-11.84.85-12.74C48.59,6.45,48.57,7.08,48.25,8.77Z"/><path class="cls-10" d="M55.61,28.55a8.18,8.18,0,0,0,2.7-1,10.93,10.93,0,0,0,2.63-2,15.41,15.41,0,0,1-2.69,2.72,5.06,5.06,0,0,1-2.44.91Z"/><path class="cls-3" d="M69,37.38l.14.44c.08.27.19.66.32,1.15.27,1,.61,2.39.92,4.1a38.4,38.4,0,0,1,.65,6,23.46,23.46,0,0,1-.19,3.67,14.34,14.34,0,0,1-1.14,4.09,10.72,10.72,0,0,1-.55,1.06c-.1.17-.22.35-.34.52l-.17.26,0,.06-.1.14,0,0-.06.07-.26.31-.45.48-.24.24-.21.19-.41.37a15.19,15.19,0,0,1-3.38,2,26,26,0,0,1-5.95,1.77,36.58,36.58,0,0,1-4.15.53c-1,.08-1.6.09-1.65.09l-.29-5.61a32.25,32.25,0,0,0,4.74-.94,20.24,20.24,0,0,0,4.38-1.73,8.36,8.36,0,0,0,1.77-1.3l.16-.17.08-.09,0-.05s0,0,.08-.1l.23-.33.06-.08v0h0l-.08.11v0l0-.08.08-.15c0-.14.11-.23.15-.38A7.78,7.78,0,0,0,63.55,52a17.55,17.55,0,0,0-.08-2.49,31.48,31.48,0,0,0-.9-4.76c-.37-1.41-.75-2.58-1-3.38-.15-.39-.26-.7-.34-.91l-.11-.28Z"/><path class="cls-4" d="M61.23,16.21c0,1.84.15,3.34,1.36,3.34s2.26-1.5,2.26-3.34-.6-3.28-1.81-3.28S61.23,14.37,61.23,16.21Z"/><path class="cls-11" d="M77.59,65.08c1.45.13,2.68-.4,2.75-1.19l2.12-23.71c.07-.79-1-1.54-2.49-1.67h0c-1.45-.13-2.68.41-2.75,1.2L75.1,63.42c-.07.79,1,1.54,2.49,1.66Z"/><path class="cls-11" d="M29.43,83.78a2.63,2.63,0,0,0,2.63,2.63H75.57a2.63,2.63,0,0,0,2.63-2.63h0a2.63,2.63,0,0,0-2.63-2.63H32.06a2.63,2.63,0,0,0-2.63,2.63Z"/><polygon class="cls-12" points="78.88 72.14 34.49 72.14 33.29 83.78 78.88 83.78 78.88 72.14"/><path class="cls-13" d="M33.29,86.93H80.71V67.32H44.19c-7.06,0-10.9,4.21-10.9,9.8Z"/><rect class="cls-14" x="45.45" y="70.66" width="70.31" height="3.05" transform="translate(4.5 149.11) rotate(-87.15)"/><path class="cls-14" d="M83.11,34.82c-1.18-.24-2.2.53-2.28,2.18s1.63.81,1.63.81l11,2.38.65-3Z"/><path class="cls-14" d="M29.08,88.46s-1.94.27-1.94-1.54,1.94-1.51,1.94-1.51H79.29v3Z"/><path class="cls-14" d="M30.23,108.48s-1.89.27-1.89-1.54,1.89-1.51,1.89-1.51H79.29v3Z"/><rect class="cls-14" x="30.23" y="85.85" width="3.05" height="35.42"/><line class="cls-15" x1="78" y1="105.03" x2="82.14" y2="81.15"/><line class="cls-15" x1="80.23" y1="105.44" x2="74.86" y2="82.01"/><line class="cls-15" x1="76.53" y1="106.53" x2="57.92" y2="91"/><line class="cls-15" x1="78" y1="104.81" x2="55.02" y2="97.73"/><line class="cls-15" x1="77.55" y1="108.84" x2="53.97" y2="114.45"/><line class="cls-15" x1="76.77" y1="106.53" x2="57.34" y2="120.7"/><line class="cls-15" x1="79.83" y1="108.76" x2="75.69" y2="132.64"/><line class="cls-15" x1="77.6" y1="108.35" x2="82.96" y2="131.79"/><line class="cls-15" x1="81.3" y1="107.26" x2="99.91" y2="122.79"/><line class="cls-15" x1="79.83" y1="108.98" x2="102.81" y2="116.06"/><line class="cls-15" x1="80.28" y1="104.95" x2="103.86" y2="99.34"/><line class="cls-15" x1="81.06" y1="107.26" x2="100.49" y2="93.09"/><line class="cls-15" x1="103.59" y1="107.85" x2="53.97" y2="105.44"/><line class="cls-15" x1="91.32" y1="128.44" x2="66.26" y2="84.91"/><line class="cls-15" x1="65.25" y1="127.5" x2="93.26" y2="86.41"/><path class="cls-16" d="M76.29,106.82a2.57,2.57,0,1,0,2.57-2.57A2.57,2.57,0,0,0,76.29,106.82Z"/><path class="cls-14" d="M77.48,106.82a1.38,1.38,0,1,0,1.38-1.38A1.37,1.37,0,0,0,77.48,106.82Z"/><path class="cls-11" d="M49.77,106.82A29.09,29.09,0,1,0,78.86,77.73,29.09,29.09,0,0,0,49.77,106.82Zm2.57,0a26.52,26.52,0,1,1,26.52,26.52A26.52,26.52,0,0,1,52.34,106.82Z"/><path class="cls-16" d="M52.05,106.82A26.81,26.81,0,1,0,78.86,80,26.8,26.8,0,0,0,52.05,106.82Zm2.05,0a24.76,24.76,0,1,1,24.76,24.76A24.75,24.75,0,0,1,54.1,106.82Z"/><path class="cls-11" d="M26.11,129.28a6.66,6.66,0,1,0,6.65-6.65A6.66,6.66,0,0,0,26.11,129.28Z"/><path class="cls-17" d="M28.34,129.28a4.43,4.43,0,1,0,4.43-4.43A4.43,4.43,0,0,0,28.34,129.28Z"/><path class="cls-18" d="M30.59,129.77s.22,1,1.93,1,1.88-1,1.88-1l-.35-8.83-4.06.18Z"/><path class="cls-17" d="M31.42,128.48a1.1,1.1,0,1,0,1.1-1.1A1.09,1.09,0,0,0,31.42,128.48Z"/><path class="cls-13" d="M31.42,100.1s-5.45,1.2-5.8,3.46-1.75,15.79-1.75,15.79"/><rect class="cls-14" x="18.04" y="111.77" width="2.57" height="12.13" transform="matrix(0.27, -0.96, 0.96, 0.27, -99.38, 104.82)"/><path class="cls-12" d="M43.39,65.52a1.66,1.66,0,0,0,1.47,1.8H69.14a1.66,1.66,0,0,0,1.47-1.8h0a1.65,1.65,0,0,0-1.47-1.79H44.86a1.65,1.65,0,0,0-1.47,1.79Z"/><path class="cls-12" d="M86,39c.62.14,6.52,1.41,7.55,1.58s1.85-3.45.76-3.67-7-1.53-7.55-1.57S85.36,38.85,86,39Z"/></g></g></g></svg>