<?xml version="1.0" encoding="utf-8"?>
<!-- Generator: Adobe Illustrator 15.0.0, SVG Export Plug-In . SVG Version: 6.00 Build 0)  -->
<!DOCTYPE svg PUBLIC "-//W3C//DTD SVG 1.1//EN" "http://www.w3.org/Graphics/SVG/1.1/DTD/svg11.dtd">
<svg version="1.1" id="Layer_1" xmlns="http://www.w3.org/2000/svg" xmlns:xlink="http://www.w3.org/1999/xlink" x="0px" y="0px"
	 width="48px" height="48px" viewBox="0 0 48 48" enable-background="new 0 0 48 48" xml:space="preserve">
<rect fill="#AAAAAA" width="48" height="48"/>
<g>
	<path fill="#FFFFFF" d="M16.204,14.221c3.97-4.058,9.488-3.134,9.543-3.124l0.174-0.98c-0.062-0.012-1.548-0.267-3.575,0.02
		c-1.876,0.267-4.587,1.071-6.854,3.389L16.204,14.221z"/>
	<path fill="#FFFFFF" d="M13.563,21.701c2.312-4.881,5.732-7.561,10.166-7.966c3.338-0.305,6.04,0.855,6.067,0.866l0.399-0.911
		c-0.117-0.052-2.931-1.267-6.515-0.95c-2.116,0.186-4.057,0.871-5.769,2.035c-2.125,1.445-3.891,3.632-5.249,6.5L13.563,21.701z"/>
	<path fill="#FFFFFF" d="M16.841,34.32l0.813-0.574c-2.222-3.147-2.87-6.43-1.929-9.758c0.676-2.389,1.974-3.953,2.104-4.107
		c3.288-3.181,6.819-4.221,10.497-3.095c2.766,0.849,4.574,2.649,4.593,2.667l0.706-0.701c-0.081-0.081-2.005-1.997-5.006-2.917
		c-1.777-0.544-3.561-0.624-5.3-0.236c-2.158,0.481-4.244,1.688-6.199,3.584l-0.025,0.026c-0.063,0.07-1.539,1.756-2.316,4.466
		c-0.458,1.595-0.576,3.216-0.353,4.816C14.705,30.482,15.517,32.444,16.841,34.32z"/>
	<path fill="#FFFFFF" d="M24.289,38l0.544-0.835c-4.752-3.088-6.127-7.58-6.141-7.626c-0.807-2.76-0.482-5.189,0.963-7.215
		c1.077-1.512,2.388-2.214,2.4-2.222c2.898-1.545,5.847-1.13,8.767,1.235c2.243,1.817,3.625,4.152,3.639,4.175l0.858-0.502
		c-0.059-0.102-1.473-2.495-3.849-4.429c-3.221-2.619-6.638-3.09-9.882-1.359c-0.06,0.032-1.532,0.819-2.746,2.522
		c-1.121,1.571-2.223,4.25-1.106,8.074C17.795,30.018,19.216,34.702,24.289,38z"/>
	<path fill="#FFFFFF" d="M29.396,37.787l0.411-0.906c-6.575-2.989-7.998-6.83-8.012-6.868l-0.016-0.038
		c-0.893-1.98-0.981-3.787-0.262-5.371c0.498-1.099,1.212-1.685,1.301-1.756c1.22-0.805,2.431-1.086,3.601-0.834
		c2.054,0.442,3.374,2.369,3.516,2.583c1.597,3.245,5.107,3.793,5.258,3.814l0.145-0.985c-0.031-0.004-3.165-0.506-4.521-3.292
		l-0.026-0.048c-0.063-0.102-1.592-2.492-4.161-3.046c-1.446-0.311-2.919,0.021-4.375,0.987l-0.024,0.017
		c-0.04,0.03-0.984,0.751-1.619,2.147c-0.578,1.274-1.002,3.378,0.255,6.175C21.003,30.735,22.623,34.71,29.396,37.787z"/>
	<path fill="#FFFFFF" d="M33.756,33.892l0.279-0.956l-0.141,0.477l0.141-0.477c-0.062-0.018-6.188-1.855-7.762-6.163l-0.936,0.341
		c0.728,1.994,2.42,3.8,4.895,5.224C32.074,33.397,33.688,33.872,33.756,33.892z"/>
	<path fill="#FFFFFF" d="M32.267,36.009l0.27-0.959c-6.286-1.762-8.365-6.472-8.426-6.616c-0.44-1.118-0.399-2.054,0.123-2.782
		c0.401-0.559,0.952-0.8,0.957-0.803l0.037-0.017c0.313-0.163,0.633-0.188,0.976-0.075c1.153,0.377,2.255,2.162,2.6,2.85
		c0.783,2.059,5.67,3.566,6.227,3.732l0.284-0.955c-1.929-0.573-5.149-1.936-5.586-3.146l-0.021-0.051
		c-0.056-0.114-1.39-2.788-3.191-3.378c-0.599-0.196-1.181-0.151-1.731,0.13c-0.137,0.062-0.807,0.388-1.326,1.087
		c-0.524,0.706-0.997,1.936-0.271,3.777l0.003,0.009c0.022,0.055,0.572,1.357,1.971,2.896
		C26.441,33.121,28.713,35.013,32.267,36.009z"/>
</g>
</svg>
