<?xml version="1.0" encoding="utf-8"?>
<!-- Generator: Adobe Illustrator 24.0.1, SVG Export Plug-In . SVG Version: 6.00 Build 0)  -->
<svg version="1.1" id="Layer_1" xmlns="http://www.w3.org/2000/svg" xmlns:xlink="http://www.w3.org/1999/xlink" x="0px" y="0px"
	 viewBox="0 0 206 206" style="enable-background:new 0 0 206 206;" xml:space="preserve">
<style type="text/css">
	.st0{fill:url(#Layer_2_2_);}
</style>
<title>Asset 1</title>
<linearGradient id="Layer_2_2_" gradientUnits="userSpaceOnUse" x1="-0.5394" y1="103" x2="206.5394" y2="103">
	<stop  offset="0" style="stop-color:#FF9D00"/>
	<stop  offset="1" style="stop-color:#ED1C24"/>
</linearGradient>
<path id="Layer_2_1_" class="st0" d="M175.8,30.2c-39.9-40.5-105.1-41-145.7-1.1s-41,105.1-1.1,145.7c0.4,0.4,0.7,0.7,1.1,1.1
	c39.9,40.5,105.1,41,145.7,1.1s41-105.1,1.1-145.7C176.6,30.9,176.2,30.5,175.8,30.2z M103,193.9c-50.2,0-90.9-40.7-90.9-90.9
	S52.8,12.1,103,12.1s90.9,40.7,90.9,90.9c0,0,0,0,0,0C193.9,153.2,153.2,193.9,103,193.9z M152.2,70c-2.3-2.4-6.1-2.4-8.5-0.1
	c0,0,0,0-0.1,0.1l-53.3,53.3l-28-28.1c-2.4-2.4-6.2-2.4-8.5,0s-2.4,6.2,0,8.5l32.3,32.3c2.3,2.4,6.1,2.4,8.5,0.1c0,0,0,0,0.1-0.1
	l57.6-57.6C154.6,76.2,154.6,72.4,152.2,70C152.2,70,152.2,70,152.2,70z"/>
</svg>
