<svg xmlns="http://www.w3.org/2000/svg" viewBox="0 0 480 480"><defs><style>.cls-1{fill:#fff;}</style></defs><title>Asset 1</title><g id="Layer_2" data-name="Layer 2"><g id="Layer_1-2" data-name="Layer 1"><g id="Outline"><path class="cls-1" d="M264,88V40a8,8,0,0,0-8-8H80a8,8,0,0,0-8,8V88a8,8,0,0,0,8,8H256A8,8,0,0,0,264,88Zm-16-8H88V48H248Z"/><path class="cls-1" d="M40,128v96a8,8,0,0,0,8,8h96a8,8,0,0,0,8-8V177.94l-16,16V216H56V136h70.06l16-16H48A8,8,0,0,0,40,128Z"/><path class="cls-1" d="M162.34,122.34,104,180.69,85.66,162.34,74.34,173.66l24,24a8,8,0,0,0,11.32,0l64-64Z"/><path class="cls-1" d="M40,360a8,8,0,0,0,8,8h96a8,8,0,0,0,8-8V313.94l-16,16V352H56V272h70.06l16-16H48a8,8,0,0,0-8,8Z"/><path class="cls-1" d="M85.66,298.34,74.34,309.66l24,24a8,8,0,0,0,11.32,0l64-64-11.32-11.32L104,316.69Z"/><path class="cls-1" d="M192,176H296v16H192Z"/><path class="cls-1" d="M192,136H296v16H192Z"/><path class="cls-1" d="M192,272h48v16H192Z"/><path class="cls-1" d="M192,312h48v16H192Z"/><path class="cls-1" d="M16,464V16H320V186.85q8.1-2.83,16-6.19V8a8,8,0,0,0-8-8H8A8,8,0,0,0,0,8V472a8,8,0,0,0,8,8H328a7.7,7.7,0,0,0,2.46-.5A192.46,192.46,0,0,1,308.85,464Z"/><path class="cls-1" d="M472.87,216.05a279.5,279.5,0,0,1-101.11-31.11,8,8,0,0,0-7.52,0,279.5,279.5,0,0,1-101.11,31.11A8,8,0,0,0,256,224v94.76A174.53,174.53,0,0,0,364.92,479.38a7.93,7.93,0,0,0,6.16,0A174.53,174.53,0,0,0,480,318.76V224a8,8,0,0,0-7.13-7.95ZM464,318.76A158.48,158.48,0,0,1,368,463.3a158.48,158.48,0,0,1-96-144.54V231.08A295.06,295.06,0,0,0,368,201a295.06,295.06,0,0,0,96,30.05Z"/><path class="cls-1" d="M301.66,314.34l-11.32,11.32,48,48a8,8,0,0,0,11.32,0l96-96-11.32-11.32L344,356.69Z"/><path class="cls-1" d="M184,424h56v16H184Z"/><path class="cls-1" d="M112,392H240v16H112Z"/></g></g></g></svg>