<svg xmlns="http://www.w3.org/2000/svg" xmlns:xlink="http://www.w3.org/1999/xlink" viewBox="0 0 98.42 103.74"><defs><style>.cls-1,.cls-2,.cls-3,.cls-4,.cls-5{fill-rule:evenodd;}.cls-1{fill:url(#linear-gradient);}.cls-2{fill:url(#linear-gradient-2);}.cls-3{fill:url(#linear-gradient-3);}.cls-4{fill:url(#linear-gradient-4);}.cls-5{fill:url(#linear-gradient-5);}</style><linearGradient id="linear-gradient" x1="91.24" y1="60.19" x2="98.42" y2="60.19" gradientUnits="userSpaceOnUse"><stop offset="0" stop-color="#b0d9ef"/><stop offset="1" stop-color="#2195d2"/></linearGradient><linearGradient id="linear-gradient-2" x1="39.11" y1="37.43" x2="87.55" y2="37.43" xlink:href="#linear-gradient"/><linearGradient id="linear-gradient-3" x1="0" y1="78" x2="93.57" y2="78" xlink:href="#linear-gradient"/><linearGradient id="linear-gradient-4" x1="2.49" y1="52.61" x2="69.01" y2="52.61" xlink:href="#linear-gradient"/><linearGradient id="linear-gradient-5" x1="86.19" y1="56.39" x2="88.92" y2="56.39" xlink:href="#linear-gradient"/></defs><title>Asset 2</title><g id="Layer_2" data-name="Layer 2"><g id="Capa_1" data-name="Capa 1"><path class="cls-1" d="M93.53,57.06c3.54,1.43,4.46,2.75,4.89,6.26a9,9,0,0,0-6.35-2.65l-.83-1.75Z"/><path class="cls-2" d="M80.37,73.87c-13.89-33-4.85-48.28,7.18-67.69C81.41,6.94,77,11.6,72,19.72c.68-7.24,3.42-13,7.38-19.72C71.45,2.12,66,9.46,64.59,20.8,63.28,11.58,63.88,8.38,66.24,1,58.67,8.11,56.39,11,56.74,23.24c-1.46-4.83-2.15-6.48-2.79-12.68C48.71,17.8,49,22,52.1,31.38c-2.83-4.55-3.59-5.28-6.5-12-2.64,7.49.18,15.06,3.58,21C46.56,37,43.64,33.14,41.1,29.55c-.7,4.35.72,12.48,6.65,20.18-2.76-1.68-5.43-4.39-8.3-7.86.13,7.24,3.19,10.47,7.49,15.68C44.17,56,41.8,54,39.11,52.36,41.45,59.4,46,64,49.66,67.68l-6-3.35c2.53,4.37,7.6,8.38,10.64,9.44C59.62,75.61,67.18,74.74,80.37,73.87Z"/><path class="cls-3" d="M93.57,57.14c-8.5-13.51-26.15,4.29-32.52,14.21C55.5,80,51.55,86.85,44,89.82,36,93,18.64,88.05,0,83,5.34,91.28,15.79,94,27,95.63c-9.07.22-16.45-2.77-24.72-5.89,6.22,15.93,22.32,15.9,38.66,11.45a21.89,21.89,0,0,1,4.82-.81c12.44-.49,22.57,1,31.22-10.06,9.14-11.62,3.87-26,15.39-29.53Z"/><path class="cls-4" d="M69,64.23c-34.67-9-41.31-25.43-49.43-46.78C16.45,22.79,17.47,29.13,20.9,38,15.56,33.08,12.64,27.4,9.71,20.19c-3.14,7.59-.6,16.36,7.54,24.38C9.13,40,7,37.6,2.49,31.22c1.09,10.36,2,13.92,11.94,21.07C9.71,50.52,8,50.06,2.66,46.81,5.23,55.37,8.72,57.7,18.08,60.92c-5.32-.51-6.37-.35-13.47-2.11,4.35,6.64,12.07,9,18.87,9.9-4.32,0-9.13,0-13.52-.16,3,3.19,10.36,7,20.07,7-3,1.17-6.79,1.65-11.28,1.83,5.82,4.29,10.25,3.81,17,3.57-2.92,1.25-5.9,2-8.87,3.06,7,2.42,13.41,1.62,18.58.92l-6.31,2.73c5,.65,11.28-1,14-2.73C57.81,81.79,61.7,75.25,69,64.23Z"/><path class="cls-5" d="M87.56,57.76a1.37,1.37,0,1,0-1.37-1.37A1.36,1.36,0,0,0,87.56,57.76Z"/></g></g></svg>