<?xml version="1.0"?>
<svg xmlns="http://www.w3.org/2000/svg" width="26" height="26" viewBox="0 0 26 26">
    <path style="text-indent:0;text-align:start;line-height:normal;text-transform:none;block-progression:tb;-inkscape-font-specification:Bitstream Vera Sans" d="M 7 0 C 4.795 0 3 1.795 3 4 L 3 22 C 3 24.205 4.795 26 7 26 L 19 26 C 21.205 26 23 24.205 23 22 L 23 8 C 23 6.938 22.02725 5.92975 20.28125 4.21875 C 20.03725 3.97875 19.77725 3.71675 19.53125 3.46875 C 19.28325 3.22275 19.02125 2.994 18.78125 2.75 C 17.06925 1.003 16.063 0 15 0 L 7 0 z M 7 2 L 14.28125 2 C 15.00225 2.184 15 3.0505 15 3.9375 L 15 7 C 15 7.551 15.449 8 16 8 L 19 8 C 19.998 8 21 8.005 21 9 L 21 22 C 21 23.104 20.104 24 19 24 L 7 24 C 5.896 24 5 23.104 5 22 L 5 4 C 5 2.896 5.896 2 7 2 z M 7.8125 10 A 1.001098 1.001098 0 0 0 8 12 L 18 12 A 1.0001 1.0001 0 1 0 18 10 L 8 10 A 1.0001 1.0001 0 0 0 7.90625 10 A 1.001098 1.001098 0 0 0 7.8125 10 z M 7.8125 14 A 1.001098 1.001098 0 0 0 8 16 L 16 16 A 1.0001 1.0001 0 1 0 16 14 L 8 14 A 1.0001 1.0001 0 0 0 7.90625 14 A 1.001098 1.001098 0 0 0 7.8125 14 z M 7.8125 18 A 1.001098 1.001098 0 0 0 8 20 L 18 20 A 1.0001 1.0001 0 1 0 18 18 L 8 18 A 1.0001 1.0001 0 0 0 7.90625 18 A 1.001098 1.001098 0 0 0 7.8125 18 z" overflow="visible" enable-background="accumulate" font-family="Bitstream Vera Sans"/>
</svg>
