<svg xmlns="http://www.w3.org/2000/svg" viewBox="0 0 401.19 513"><defs><style>.cls-1,.cls-2{fill:#fff;stroke:#fff;stroke-miterlimit:10;}.cls-2{font-size:174.93px;stroke-width:2px;font-family:ProximaNovaSoftW03-Regular;}</style></defs><title>Asset 1</title><g id="Layer_2" data-name="Layer 2"><g id="Layer_1-2" data-name="Layer 1"><path class="cls-1" d="M398.49,118.72l-38.3-38.31V23.26A22.79,22.79,0,0,0,337.43.5H23A22.5,22.5,0,0,0,.5,23V400.1A22.5,22.5,0,0,0,23,422.58H35.69v12.53a22.5,22.5,0,0,0,22.47,22.47H97.81a7.5,7.5,0,0,0,0-15H58.16a7.48,7.48,0,0,1-7.47-7.47V133.49a7.5,7.5,0,0,0-15,0V407.58H23a7.49,7.49,0,0,1-7.47-7.48V23A7.48,7.48,0,0,1,23,15.5H337.43a7.77,7.77,0,0,1,7.76,7.76V65.41L317.49,37.7a7.5,7.5,0,0,0-5.3-2.19h-254A22.5,22.5,0,0,0,35.69,58V98.57a7.5,7.5,0,0,0,15,0V58a7.48,7.48,0,0,1,7.47-7.47H304.69V124a7.5,7.5,0,0,0,7.5,7.5h73.5V435.11a7.49,7.49,0,0,1-7.48,7.47H338.94a7.5,7.5,0,0,0,0,15h39.27a22.5,22.5,0,0,0,22.48-22.47V124A7.47,7.47,0,0,0,398.49,118.72Zm-78.8-2.21V61.12l55.39,55.4Z"/><path class="cls-1" d="M128.66,179H308.08a7.5,7.5,0,0,0,0-15H128.66a7.5,7.5,0,1,0,0,15Z"/><path class="cls-1" d="M128.66,223.24H308.08a7.5,7.5,0,0,0,0-15H128.66a7.5,7.5,0,1,0,0,15Z"/><path class="cls-1" d="M308.08,253.36H272.64a7.5,7.5,0,0,0,0,15h35.44a7.5,7.5,0,1,0,0-15Z"/><path class="cls-1" d="M128.66,268.36H237.34a7.5,7.5,0,1,0,0-15H128.66a7.5,7.5,0,1,0,0,15Z"/><path class="cls-1" d="M218.39,300.75a106.19,106.19,0,0,0-99.58,69.82,7.5,7.5,0,1,0,14.1,5.11,90.95,90.95,0,1,1-5.4,30.94,7.5,7.5,0,0,0-15,0A105.88,105.88,0,1,0,218.39,300.75Z"/><text class="cls-2" transform="translate(183 464.14)">?</text></g></g></svg>