<svg xmlns="http://www.w3.org/2000/svg" xmlns:xlink="http://www.w3.org/1999/xlink" viewBox="0 0 1022.52 778.43"><defs><style>.cls-1{fill:url(#linear-gradient);}.cls-2{fill:#211c18;}.cls-3{fill:#cab5a1;}.cls-4{fill:url(#linear-gradient-2);}.cls-5{fill:url(#linear-gradient-3);}.cls-6{fill:#eacdb0;}.cls-7{fill:url(#linear-gradient-4);}.cls-8{fill:url(#linear-gradient-5);}.cls-9{fill:url(#linear-gradient-6);}.cls-10{fill:#ededef;}.cls-11{fill:#fff;}.cls-12,.cls-13{fill:#b5b7b8;}.cls-13{font-size:103.88px;font-family:Inter-Medium, Inter;font-weight:500;letter-spacing:0.01em;}.cls-14{letter-spacing:0.02em;}.cls-15{letter-spacing:0.05em;}.cls-16{font-size:292.17px;fill:#587bc9;font-family:Inter-Regular, Inter;}.cls-17{fill:#eac1a4;}</style><linearGradient id="linear-gradient" x1="456.56" y1="202.53" x2="558.32" y2="202.53" gradientUnits="userSpaceOnUse"><stop offset="0" stop-color="#ca7500"/><stop offset="1" stop-color="#80183e"/></linearGradient><linearGradient id="linear-gradient-2" x1="323.97" y1="319.49" x2="577.42" y2="319.49" xlink:href="#linear-gradient"/><linearGradient id="linear-gradient-3" x1="335.9" y1="209.5" x2="413.55" y2="209.5" xlink:href="#linear-gradient"/><linearGradient id="linear-gradient-4" x1="418.74" y1="276.07" x2="558.23" y2="276.07" xlink:href="#linear-gradient"/><linearGradient id="linear-gradient-5" x1="335.96" y1="255.16" x2="478.91" y2="255.16" xlink:href="#linear-gradient"/><linearGradient id="linear-gradient-6" x1="502.79" y1="251.77" x2="583.35" y2="251.77" xlink:href="#linear-gradient"/></defs><title>Asset 5</title><g id="Layer_2" data-name="Layer 2"><g id="Layer_1-2" data-name="Layer 1"><polygon class="cls-1" points="456.56 126.11 467.15 123.38 487.38 134.95 558.32 249.92 553.03 281.69 477.77 232.2 456.56 126.11"/><polygon class="cls-2" points="368.14 748.51 367.02 759.58 387.1 773.38 398.82 763.68 389.34 751.24 369.26 737.44 368.14 748.51"/><polygon class="cls-3" points="368.64 410.04 365.24 443.66 395.35 559.17 367.39 744.79 387.97 751.9 442.25 570.67 450.86 517.95 450.55 406.35 368.64 410.04"/><polygon class="cls-3" points="526.94 447.51 483.65 758.55 463.97 758.55 460.43 559.17 424.61 419.23 526.94 447.51"/><polygon class="cls-2" points="464.08 756.09 464.08 767.26 485.37 778.43 496 767.26 485.37 756.09 464.08 756.09"/><path class="cls-4" d="M364.13,314.59c11.2-64.91,28.53-127.92,34.8-194,16.56,0,39.42-7.68,56.66-3.11h0a8.22,8.22,0,0,1,.83.24,27.54,27.54,0,0,1,15.85,11.56l.14.22c6.13,6.72,13.18,17.09,19.77,33.11,16.81,40.81,84,280.92,85.24,343.35l-.63.14a312.84,312.84,0,0,1-45.65,10.15h0c-47,7.16-99.63,7.09-142.42,6.37-5.65-.1-65.53,1.85-64.69-2Q346.29,418,364.13,314.59Z"/><polygon class="cls-5" points="401.54 123.55 384.53 134.02 335.9 264.6 341.25 295.45 370.9 293.33 413.55 158.36 401.54 123.55"/><path d="M478.63,26.22s11.4,9.33,6,43.68-2.14,56.9-2.14,56.9-11.81,5.37-20.4,0-11.81-6.44-8.59-20.39,9.66-80.52,9.66-80.52Z"/><path d="M448.21,37.83A34.76,34.76,0,0,1,473,67a31.14,31.14,0,0,0,9.45-26.52,31.16,31.16,0,0,0-16.18-23,35.45,35.45,0,0,0-17,20.67Z"/><path class="cls-6" d="M476.86,55.33c-6.74-35.63-51.18-29.47-63.93-.62-7.26,16.41-5.56,48.47,14.84,53.84.32,3.16.73,9.07,3.13,11.18,2.61,2.28,10.82.11,14-.64a5,5,0,0,0,2.48-1.11c.8-.82.94-3,1-5.41a29.46,29.46,0,0,0,7.24-1.43c10.34-3.4,17.83-13,20.92-23.43S478.88,66,476.86,55.33Z"/><path d="M467.49,17.3s4.29,19.33-20.4,24.69-40.73,24.69-36.47,45.09,22.51,35.43,12.85,40.8-45.09,0-45.09,0S356.91,56,385.9,24.82,456.75-7.39,467.49,17.3Z"/><polygon class="cls-7" points="558.23 249.94 525.84 237.87 418.74 293.34 430.88 314.27 552.72 282.03 558.23 249.94"/><polygon class="cls-6" points="421.62 298.08 411.62 296.74 403.72 297.73 403.72 301.38 394.79 297.93 400.76 311.55 417.55 314.51 429.31 311.34 421.62 298.08"/><polygon class="cls-8" points="335.95 264.74 373.02 239.33 469.38 214.97 478.91 235.09 370.9 293.33 341.51 295.34 335.95 264.74"/><polygon class="cls-9" points="564.03 199.75 503.63 240.27 502.79 238.76 502.79 303.8 552.89 267.91 583.35 222.59 564.03 199.75"/><rect class="cls-10" x="8.78" y="223.88" width="1004.96" height="384.12" transform="translate(-19.7 25.46) rotate(-2.8)"/><path class="cls-11" d="M994.69,559.75,44.16,606.21,27.83,272.13l950.52-46.47ZM49.88,599.91,988.38,554,972.64,232,34.13,277.85Z"/><rect class="cls-12" x="328.08" y="418.65" width="611.75" height="95.29" transform="matrix(1, -0.05, 0.05, 1, -22.01, 31.51)"/><text class="cls-13" transform="translate(325.11 389.18) rotate(-3.01)">1<tspan class="cls-14" x="50.02" y="0">,</tspan><tspan class="cls-15" x="82.29" y="0">00</tspan><tspan class="cls-14" x="226.88" y="0">0,</tspan><tspan class="cls-15" x="328.65" y="0">000</tspan></text><text class="cls-16" transform="translate(74.45 545.15) rotate(-3.7)">₱</text><polygon class="cls-17" points="565.83 194.76 595.67 205.95 603.08 237.62 585.77 241.56 571.74 222.37 560.21 221.66 549.38 204.16 565.83 194.76"/></g></g></svg>