<svg xmlns="http://www.w3.org/2000/svg" xmlns:xlink="http://www.w3.org/1999/xlink" viewBox="0 0 889.36 827.33"><defs><style>.cls-1{fill:#b8d1ff;}.cls-2{fill:#ffa47c;}.cls-3{fill:#e0f2ff;}.cls-4{fill:#ffbd95;}.cls-5{fill:#cee0ff;}.cls-6{fill:#191919;}.cls-7{fill:#0f0d0d;}.cls-8{fill:#3e4b62;}.cls-9{fill:#303030;}.cls-10{fill:#3b1b1d;}.cls-11{fill:#722c1d;}.cls-12{fill:#bb6300;}.cls-13{fill:#a05102;}.cls-14{fill:#92bd88;}.cls-15{fill:#74a67e;}.cls-16{fill:#b0d8a6;}.cls-17{fill:url(#linear-gradient);}.cls-18{fill:url(#linear-gradient-2);}.cls-19{fill:#9a9a9a;}.cls-20{fill:#717171;}.cls-21{fill:url(#linear-gradient-3);}</style><linearGradient id="linear-gradient" x1="540.55" y1="355.76" x2="609.92" y2="355.76" gradientUnits="userSpaceOnUse"><stop offset="0" stop-color="#588bcf"/><stop offset="1" stop-color="#455bc0"/></linearGradient><linearGradient id="linear-gradient-2" x1="573.83" y1="378.51" x2="717.44" y2="378.51" xlink:href="#linear-gradient"/><linearGradient id="linear-gradient-3" x1="673.17" y1="348.72" x2="725.63" y2="348.72" xlink:href="#linear-gradient"/></defs><title>Asset 4</title><g id="Layer_2" data-name="Layer 2"><g id="Layer_1-2" data-name="Layer 1"><path class="cls-1" d="M227.74,255.45c4.29-19.5,43.84-7.47,62.85-.63s72.31,32.4,72.31,32.4l-6.33,21s-54-3.56-107.4-19.65C243.69,286.89,223.36,275.27,227.74,255.45Z"/><path class="cls-2" d="M387.14,319.5v0a3.64,3.64,0,0,0-1.87-4.82l-14.39-6.27a3.71,3.71,0,0,0-4.87,1.9v0a3.67,3.67,0,0,0,1.88,4.82l14.39,6.27A3.7,3.7,0,0,0,387.14,319.5Z"/><path class="cls-2" d="M390.53,313.46v0a3.65,3.65,0,0,0-1.88-4.82l-14.39-6.27a3.71,3.71,0,0,0-4.86,1.9v0a3.65,3.65,0,0,0,1.88,4.82l14.39,6.28A3.72,3.72,0,0,0,390.53,313.46Z"/><path class="cls-2" d="M393.48,307.38v0a3.67,3.67,0,0,0-1.89-4.82l-14.39-6.27a3.72,3.72,0,0,0-4.86,1.92h0a3.67,3.67,0,0,0,1.88,4.82l14.39,6.28A3.73,3.73,0,0,0,393.48,307.38Z"/><path class="cls-2" d="M395.77,301.26v0a3.65,3.65,0,0,0-1.87-4.81l-14.39-6.28a3.71,3.71,0,0,0-4.87,1.91h0a3.66,3.66,0,0,0,1.87,4.82l14.39,6.27A3.72,3.72,0,0,0,395.77,301.26Z"/><path class="cls-2" d="M343.08,283.49s26.06-.17,30.92,1.27,21.19,12.65,21.19,12.65-8.2,3.66-9.45,8-3.44,16-3.44,16-17.07-2.59-24.2-6.24a79.28,79.28,0,0,1-13.3-8.87Z"/><polygon class="cls-3" points="354.25 313.06 335.69 306.68 344.16 278.37 363.67 283.29 354.25 313.06"/><path class="cls-1" d="M175.61,147.18c-17.18,6.92-16.56,23.19-8.66,39.63s65.7,92,71.43,93.38,29-11.77,28.45-20.24-39.83-80.2-48.68-92.59S195.73,139.07,175.61,147.18Z"/><path class="cls-4" d="M124.93,64.15s-4.8,53.2-8,55.63c-10,7.59-45.34,12.75-52.55,26.42-8.72,16.59,31.27,94.73,35.78,120.14s-9.08,63.86-14,88.36,71.26,58,74.11,58.1,28.91-22.05,34-29.9,3.38-71.32,4.13-87.45,7.14-72.51,8-76.17c6-24.47.54-44.25-.16-49.52s0-14-2.49-17.44c-4.91-6.89-33.52-17-33.84-20.36s-2.11-49.8-2.11-49.8Z"/><path class="cls-5" d="M116.92,119.78l45.48,30.1L170,132s30.17,13.53,33.84,20.36,4.91,21.32,6,26.73.69,30.15-2.41,51.46c-1.8,12.47-2.26,29-5.16,50.3-2.48,18.19-2.59,63.75-2.59,63.75s-17.47-.09-44.44-2.66c-31.22-3-66.22-4.58-67.58-5.79-5.81-5.23,8.43-58,7.59-63.4s-35-100.06-35-112.25,6.56-19.93,16-24.08S116.92,119.78,116.92,119.78Z"/><path class="cls-1" d="M80.08,139.3s19.19-.21,27.26,14.21c21.76,38.82,2.9,91.08,30,99.48,43.27,13.44-11.44,22-13,30.49-7.23,38.35,2.28,55.92,2.28,55.92l-36.46-1.87c-12.66,1.9,4.93-65.25.76-78.47S67,179.43,67.23,169.63,80.08,139.3,80.08,139.3Z"/><polygon class="cls-2" points="168.63 102.3 122.11 83.11 119.66 111.04 133.85 120.58 168.63 102.3"/><path class="cls-4" d="M190.12,20.38c-9.72-12.91-42.37-29.15-63.47-9.61s-17.86,43.29-11.29,58.84c5.12,12.15,10.93,19.4,23.51,28.11,2.57,1.78,27.11,10.87,32.5,10.09,3.69-.54,11-25.31,12-25s4.08-.7,4.61-2.72c.77-3,.92-21.7,2-23.48S201.25,35.16,190.12,20.38Z"/><path d="M195.05,32.94s-17.29-14.48-45.4,3c-6.06,3.76,0,25.62-1.64,27.17s-16.35-18.22-16.09-15.83c2.66,24.52-7.31,35.9-9.46,35.65C116,82.14,102.22,45.72,117,21S160.59-1,167.12,1.66,193.89,9.65,195.05,32.94Z"/><path class="cls-4" d="M142.27,54.53c.89,7.81.09,18-4.13,18.42s-8.37-5.53-9.26-13.35,1.81-14.5,6-15S141.38,46.72,142.27,54.53Z"/><rect class="cls-6" x="129.65" y="789.98" width="30.29" height="5.65"/><path class="cls-7" d="M130.84,750.16c-4,5.55-6.66,16.31-7,21.26-.47,6,3.08,18.56,7,18.56a289.72,289.72,0,0,1,37,2.06c11.83,1.58,16.24,8.38,46.46,8.31,8.81,0,24.84-.58,24.37-4.16s-29-10.09-38.19-18.57C177.13,756.18,161.64,751,161.64,751S131.66,749,130.84,750.16Z"/><path class="cls-8" d="M106.84,365.41s-2,12.28-3.83,29.86,15.15,73.87,21.17,118.14,9.73,53.22,8.23,63.68-14.64,52.81-13,81,7.33,101.86,7.33,101.86,8.32,3.78,22.84,5.18S174.21,754,174.21,754s11.68-164.61,13.52-182c1.2-11.24,10.39-88.79,13.2-152,.9-20.34-1.41-67.37-1.4-75.78C199.53,338.36,106.84,365.41,106.84,365.41Z"/><polygon class="cls-6" points="119.3 806.07 89.07 804.17 89.44 798.35 119.68 800.25 119.3 806.07"/><path class="cls-6" d="M93.27,757.38c-4.33,5.49-7.72,16.4-8.44,21.48C84,785,86.68,798.17,90.6,798.42a281,281,0,0,1,36.75,4.43c11.68,2.38,15.64,9.66,45.8,11.49,8.8.52,24.83.95,24.6-2.78S169.5,799.36,160.87,790C139.08,766.49,124,760.18,124,760.18S94.16,756.25,93.27,757.38Z"/><path class="cls-8" d="M88.05,336.73S78,363,78.32,384.85c.24,17.67,5.32,50.14,11.34,94.4s6.58,85.43,5.09,95.87S79.26,629.9,80.94,658.06s9.31,97.7,9.31,97.7a44.38,44.38,0,0,0,23.34,9.13c14.52,1.4,23.1-4.78,23.1-4.78S153.61,595.22,160.15,579c10.46-25.9,12-107.47,19.26-163.09,2.92-22.44,16.6-71.68,16.6-71.68Z"/><polygon class="cls-1" points="160.84 138.71 162.4 149.88 138.43 134.17 160.84 138.71"/><polygon class="cls-1" points="162.4 149.88 166.92 136.31 172.63 141.21 162.4 149.88"/><polygon class="cls-9" points="156.72 143.76 171.1 140.42 171.81 154.53 164.13 156.61 156.72 143.76"/><polygon class="cls-3" points="110.35 122.35 119.66 111.04 160.84 138.71 153.43 153.51 110.35 122.35"/><polygon class="cls-3" points="166.92 136.31 176.46 148.3 178.59 136.05 170.53 127.6 166.92 136.31"/><path class="cls-5" d="M87.76,140.74c-17.53-6-27.68,6.78-32.42,24.38S45.06,277.73,48.52,282.49s29.64,10,34.76,3.23S105.45,199,106.83,183.8,108.3,147.73,87.76,140.74Z"/><path class="cls-10" d="M87.57,336.11s31.29,2.09,62.31,3.29,49.72,2,49.72,2l.17,12.3s-31.82.71-64.57-1.26c-32.32-2-50.74-4.82-50.74-4.82Z"/><rect class="cls-11" x="185.02" y="341.15" width="14.4" height="14.26" rx="3.81"/><path class="cls-8" d="M164.13,156.61s11.6,36.75,14.46,65.25,0,114.87,0,114.87l14.5,18.68,6.68-21.9s-3.58-83.71-9.84-114.44-18.12-64.54-18.12-64.54Z"/><path class="cls-6" d="M55.28,458.58l-5.83-3.31,5-8.73C61.73,433.68,74,426,87.34,426h1c15.07,0,28.6,9.71,35.31,25.34l1.83,4.26-6.17,2.63L117.5,454c-5.63-13.13-16.81-21.28-29.15-21.28h-1c-10.86,0-21,6.4-27.09,17.14Z"/><path class="cls-5" d="M62.08,263.85C42,265.37,48.68,306.56,53,326.51s22.62,76.82,22.62,76.82L97.44,400s3.75-54.44-5.15-110C91.39,284.27,82.52,262.33,62.08,263.85Z"/><path class="cls-2" d="M77.35,442.6h0a3.93,3.93,0,0,0,4-3.79l.49-16.71a3.92,3.92,0,0,0-3.81-4h0a3.92,3.92,0,0,0-4,3.79l-.49,16.71A3.92,3.92,0,0,0,77.35,442.6Z"/><path class="cls-2" d="M84.64,443.5h0a3.92,3.92,0,0,0,4-3.79l.49-16.7a3.93,3.93,0,0,0-3.81-4h0a3.92,3.92,0,0,0-4,3.79l-.49,16.71A3.9,3.9,0,0,0,84.64,443.5Z"/><path class="cls-2" d="M91.79,444h0a3.92,3.92,0,0,0,4-3.79l.49-16.71a3.9,3.9,0,0,0-3.8-4h0a3.93,3.93,0,0,0-4,3.79L88,439.93A3.93,3.93,0,0,0,91.79,444Z"/><path class="cls-2" d="M98.73,443.73h0a3.91,3.91,0,0,0,4-3.79l.5-16.7a3.92,3.92,0,0,0-3.82-4h0a3.92,3.92,0,0,0-4,3.79l-.48,16.7A3.89,3.89,0,0,0,98.73,443.73Z"/><path class="cls-2" d="M95.4,384.68s10.47,25.6,11,31-4.08,26-4.08,26-6.85-6.6-11.66-6.06-17.08,3-17.08,3-4.21-17.83-3.43-26.32a85.25,85.25,0,0,1,3.48-16.69Z"/><polygon class="cls-3" points="70.78 402.61 68.06 382.47 98.57 378.34 101.3 398.47 70.78 402.61"/><path class="cls-12" d="M14.88,452.43H163.45a14.87,14.87,0,0,1,14.87,14.87V577.69a14.87,14.87,0,0,1-14.87,14.87H14.87A14.87,14.87,0,0,1,0,577.69V467.31a14.88,14.88,0,0,1,14.88-14.88Z"/><path class="cls-7" d="M178.32,505.32V472.18a14.91,14.91,0,0,0-14.87-14.87H14.87A14.91,14.91,0,0,0,0,472.18v32.05a40.58,40.58,0,0,0,34.46,19.42h110A40.67,40.67,0,0,0,178.32,505.32Z"/><path class="cls-13" d="M178.32,500.45V467.31a14.92,14.92,0,0,0-14.87-14.88H14.87A14.92,14.92,0,0,0,0,467.31v32.05a40.59,40.59,0,0,0,34.46,19.41h110A40.66,40.66,0,0,0,178.32,500.45Z"/><path class="cls-7" d="M170.41,454.25a14.72,14.72,0,0,1,3.4,9.32V574a14.93,14.93,0,0,1-14.87,14.88H10.36a14.63,14.63,0,0,1-7-1.82,14.76,14.76,0,0,0,11.47,5.54H163.45a14.91,14.91,0,0,0,14.87-14.87V467.31A14.86,14.86,0,0,0,170.41,454.25Z"/><path class="cls-14" d="M416.31,327.37a90.17,90.17,0,0,0-63.73-14.47c-.09-.56-.17-1.13-.26-1.69a91.89,91.89,0,0,1,65,14.73C417,326.43,416.64,326.9,416.31,327.37Z"/><path class="cls-15" d="M431.77,323.84a91.44,91.44,0,0,0-15.46,3.53c.33-.47.65-.94,1-1.43a93.91,93.91,0,0,1,15.61-3.44Z"/><path class="cls-14" d="M432.89,322.5a93.91,93.91,0,0,0-15.61,3.44l1-1.43A94.51,94.51,0,0,1,434,321.19Z"/><path class="cls-16" d="M417.28,325.94a91.89,91.89,0,0,0-65-14.73c-.08-.57-.16-1.15-.25-1.72a93.53,93.53,0,0,1,66.18,15Z"/><path class="cls-15" d="M434,321.19a94.51,94.51,0,0,0-15.75,3.32l1-1.43a94.64,94.64,0,0,1,15.9-3.2C434.73,320.31,434.37,320.75,434,321.19Z"/><path class="cls-14" d="M418.25,324.51a93.53,93.53,0,0,0-66.18-15l-.24-1.7a95.23,95.23,0,0,1,67.38,15.29Z"/><path class="cls-14" d="M435.11,319.88a94.64,94.64,0,0,0-15.9,3.2l1-1.43a93.3,93.3,0,0,1,16-3.09Z"/><path class="cls-16" d="M419.21,323.08a95.23,95.23,0,0,0-67.38-15.29l-.27-1.71a97,97,0,0,1,68.62,15.57Z"/><path class="cls-15" d="M436.24,318.52a98.34,98.34,0,0,0-16,3.1l1-1.43a97.32,97.32,0,0,1,16.2-3C437,317.63,436.61,318.08,436.24,318.52Z"/><path class="cls-14" d="M420.2,321.62A97.1,97.1,0,0,0,351.56,306c-.09-.57-.17-1.13-.26-1.7a98.73,98.73,0,0,1,69.86,15.85Z"/><path class="cls-14" d="M437.36,317.2a97.32,97.32,0,0,0-16.2,3c.33-.47.65-1,1-1.44a99.85,99.85,0,0,1,16.34-2.88Z"/><path class="cls-16" d="M421.16,320.19a98.73,98.73,0,0,0-69.86-15.85c-.08-.57-.18-1.14-.25-1.71a100.47,100.47,0,0,1,71.08,16.12C421.81,319.23,421.49,319.72,421.16,320.19Z"/><path class="cls-15" d="M438.47,315.87a99.85,99.85,0,0,0-16.34,2.88c.33-.47.65-.95,1-1.42a99.92,99.92,0,0,1,16.49-2.77C439.21,315,438.84,315.45,438.47,315.87Z"/><path class="cls-14" d="M422.13,318.75a100.47,100.47,0,0,0-71.08-16.12c-.08-.57-.17-1.14-.25-1.71a102.19,102.19,0,0,1,72.29,16.41C422.78,317.8,422.46,318.28,422.13,318.75Z"/><path class="cls-16" d="M439.58,314.56a114.43,114.43,0,0,0-78.51-26.83,105.64,105.64,0,0,0-10.27,13.19,102.19,102.19,0,0,1,72.29,16.41A99.92,99.92,0,0,1,439.58,314.56Z"/><path class="cls-14" d="M423,315l-.2-.12a104.22,104.22,0,0,0-66.44-16.54l-1.23.13.74-1c2.15-2.9,4.5-5.74,7-8.47l.17-.17h.23a113.4,113.4,0,0,1,70.86,22.86l1,.79-1.27.2A102.24,102.24,0,0,0,423.25,315Zm-37.5-16.34a104.75,104.75,0,0,1,37.7,15.15c3-.81,6.08-1.48,9.21-2a112.11,112.11,0,0,0-68.89-21.87c-2.13,2.32-4.15,4.76-6,7.22A105.24,105.24,0,0,1,385.51,298.68Z"/><path class="cls-14" d="M361.1,291.85c2.86-.92,5.78-1.73,8.75-2.41-2.19-.09-4.38-.1-6.57-.05C362.53,290.2,361.81,291,361.1,291.85Z"/><path class="cls-14" d="M429.63,309.15c.33,1.19.63,2.38.93,3.56,1.06-.2,2.14-.39,3.23-.57C432.42,311.11,431,310.11,429.63,309.15Z"/><path class="cls-14" d="M356.32,297.82c.75-1,1.52-2,2.31-3,.92.86,1.83,1.75,2.71,2.64C359.67,297.55,358,297.67,356.32,297.82Z"/><path class="cls-14" d="M418.73,311.72c1.48.86,2.94,1.77,4.38,2.71,1.15-.31,2.33-.62,3.5-.89Q422.67,312.46,418.73,311.72Z"/><path class="cls-4" d="M358.76,315.23a68.66,68.66,0,0,0,14.35,4.84c.89.2,2.13,1,3,1.2.72.16,2.15,0,2.85.13s1.15.64,1.78.78c.85.18,2.1-.37,2.9-.21s2,.73,2.56.92c2.47.73,2.87-1,3.65-.85a16.46,16.46,0,0,0,3.6.52c2.25-.25,9.94-6.69,10.82-8.06s7.6-7.95,7.08-8.78-4-1.91-8.11,1.19-9.24,6.62-8.56,5.71a43.73,43.73,0,0,0,3.52-9.49c.31-1.67-1.4-2.35-2.81-2.33-.83,0-4.18,3.41-4.18,3.41s-1.3-3.18-2-3.23c-2.52-.15-4.2,3.13-5.08,4s-.85-3.23-1.95-3.18c-4.11.18-6.37,9.95-10.17,8.35C370.08,309.35,361.2,309.8,358.76,315.23Z"/><path class="cls-6" d="M463.67,730.45c3.78,5.37,6.34,15.76,6.71,20.53.44,5.77-2.94,17.91-6.68,17.91a273.18,273.18,0,0,0-35.2,2c-11.26,1.53-15.46,8.09-44.25,8-8.39,0-23.66-.56-23.2-4s27.6-9.73,36.36-17.92c22.16-20.7,36.93-25.71,36.93-25.71S462.89,729.36,463.67,730.45Z"/><rect class="cls-6" x="435.94" y="768.89" width="28.85" height="5.46" transform="translate(900.74 1543.24) rotate(180)"/><path class="cls-8" d="M578.79,498.31s-100.6,27-112.79,40.48c-11.9,13.12-45.42,194.76-45.42,194.76s7.59,7,27.15,8.54,26.21,0,26.21,0,32.65-118.28,35.93-138.55c2.61-16,8.74-39.41,8.74-39.41s125.92-6.24,134.54-13.69c49.21-42.47-4.94-66.76-4.94-66.76l-70.12,4.95Z"/><path class="cls-2" d="M589.69,298.8c17.54,1.82,21.25,16.88,18.34,34S577,432.5,567.2,437.06c-5.07,2.37-25.75,1.35-27.5-6.54s15.95-83.75,20.8-97.42S569.14,296.66,589.69,298.8Z"/><path class="cls-4" d="M483.23,507.19s-20.18,10.34-21.45,10.1-18.08,37.22-15.73,37.13,6.2-3.06,9.21-8.43,27.84-13.37,33.9-22.57S483.23,507.19,483.23,507.19Z"/><path class="cls-4" d="M566.51,420.69c15.31,11.54-11.23,41.12-24.93,54.92s-60.14,52.51-60.14,52.51L470.82,514s60.57-81.67,64.27-85.75S550.92,409,566.51,420.69Z"/><path class="cls-17" d="M588.56,295.25c15.79.59,29,7.59,16.26,57.9s-16.73,62-16.73,62-22.37,2.7-33-.12-14.57-6.78-14.57-6.78,10.46-70.27,22.89-93.08C571.23,300.84,580.18,294.94,588.56,295.25Z"/><path class="cls-4" d="M657.56,216.73s3.55,50.74,6.56,53.12c9.39,7.41,42.93,13,49.53,26.17,8,16-31.59,89.6-36.38,113.71s9.68,75.44,13.93,98.86S620,548,617.25,548s-32.74-21.88-37.47-29.44,3.78-67.65,3.37-83-5.39-69.18-6.18-72.69c-5.25-23.41.33-42.14,1.1-47.14s.29-13.31,2.7-16.56c4.81-6.47,32.25-15.55,32.62-18.73s3-47.37,3-47.37Z"/><polygon class="cls-6" points="459.87 789.73 488.7 791.18 488.99 785.55 460.16 784.09 459.87 789.73"/><path class="cls-6" d="M490.72,746.64c3.27,5.84,4.87,16.76,4.81,21.7-.07,6-4.56,18.17-8.29,17.84A263.5,263.5,0,0,0,452,785.12c-11.35.59-16.14,7-44.8,4.35-8.36-.75-23.51-2.66-22.75-6.18s28.38-7.58,37.85-15.22c24-19.34,39.13-23.19,39.13-23.19S490,745.43,490.72,746.64Z"/><path class="cls-8" d="M689.25,480.7s6.47,24.87,3.68,45.47-13.51,45.18-61.61,49.65-78.09,7-79.6,7.21-7.37,32-14.16,60c-7.66,31.61-39.43,111.27-39.43,111.27s-10.42,3-29.52,3.38-25.3-6.35-25.3-6.35,36.87-176.45,41.47-191.4c7.78-25.24,92.87-47.26,92.46-51.72s0-22.54,0-22.54Z"/><path class="cls-18" d="M664.12,269.85,617,300.37l-3.63-19.94s-29,12.29-32.62,18.73-5.07,20.21-6.18,25.35-1.24,28.68,1.3,49c1.48,11.91,1.59,27.7,4,48,2,17.38-9.17,48.86-2.6,64.13.63,1.44,19.77,2.34,45.51.41,29.78-2.24,67.24-.1,68.55-1.23,5.62-4.87-10.3-63.83-9.4-69s35.24-94.59,35.52-106.2-4.66-20.93-13.56-25.07S664.12,269.85,664.12,269.85Z"/><polygon class="cls-2" points="652.92 226.43 614.65 251.26 614.65 263.04 650.22 268.55 661.82 260.49 657.69 224.9 652.92 226.43"/><path class="cls-4" d="M618.47,163.55c13.23-8.89,48.48-13.3,61.1,12s1.61,46.56-9.66,59c-8.77,9.69-16.53,14.57-30.95,18.57-2.93.82-28.38,1.2-33-1.32-3.17-1.72-1.49-27.4-2.49-27.46s-3.48-2-3.28-4.08c.29-3,6.51-20.66,6.13-22.69S603.32,173.74,618.47,163.55Z"/><path d="M609.72,173.71s20.66-7.85,40.37,17.86c4.24,5.53-8.68,24.05-7.72,26,1,2.13,21.08-11.67,20-9.5-10.73,22.12-5.49,36.11-3.45,36.58,6.2,1.45,31-28.18,26-56.23s-32.29-35.17-39.15-34.82S618.68,152.24,609.72,173.71Z"/><path class="cls-4" d="M650.51,211.48c-3.46,7-6.18,16.84-2.48,18.65s9.5-2.42,13-9.45,3.26-14.21-.44-16S654,204.44,650.51,211.48Z"/><polygon class="cls-1" points="619.19 290.1 617.02 300.37 628.11 293.3 619.19 290.1"/><polygon class="cls-3" points="668.62 271.74 661.82 260.49 619.19 290.1 623.68 302.56 668.62 271.74"/><polygon class="cls-1" points="617.02 300.37 615.87 289.64 612.02 294.4 617.02 300.37"/><polygon class="cls-3" points="615.87 289.64 613.81 274.66 607.27 281.12 609.75 298.57 615.87 289.64"/><path class="cls-19" d="M760.15,314.5a6.72,6.72,0,0,0,6.63-5.7A14.92,14.92,0,0,1,781.64,296h28.24a6.71,6.71,0,0,0,0-13.42H781.64a28.29,28.29,0,0,0-28.13,24.19,6.71,6.71,0,0,0,5.63,7.63A7,7,0,0,0,760.15,314.5Z"/><rect class="cls-19" x="562" y="582.83" width="12.94" height="204.65" transform="translate(1136.94 1370.31) rotate(180)"/><path class="cls-19" d="M500.34,803.81,573,576.88a6.7,6.7,0,1,0-12.76-4.08L490.56,790.39l-88.82-.18h0a6.71,6.71,0,0,0,0,13.42Z"/><path class="cls-19" d="M654.12,775l155-.21a6.71,6.71,0,0,0,0-13.42h0L658,761.53l-80.59-50.67a6.71,6.71,0,1,0-7.15,11.35Z"/><path class="cls-19" d="M568.3,572.22h8.94V474.56a9.4,9.4,0,0,1,9.39-9.39h11.45v-8.94H586.63a18.35,18.35,0,0,0-18.33,18.33Z"/><path class="cls-19" d="M560.33,586.76H741.06V562.92H560.33a11.91,11.91,0,0,0-11.91,11.91h0A11.92,11.92,0,0,0,560.33,586.76Z"/><rect class="cls-19" x="736.08" y="434.04" width="12.93" height="334" transform="translate(1485.1 1202.07) rotate(180)"/><rect class="cls-19" x="649.58" y="572.83" width="12.94" height="195.41" transform="translate(1312.11 1341.07) rotate(180)"/><path class="cls-9" d="M552.57,785.05a15.9,15.9,0,1,0,15.9-15.89A15.9,15.9,0,0,0,552.57,785.05Z"/><path class="cls-20" d="M725.54,680.39l17-140.94,17,141.22-17,138.81Zm2.22,0,14.78,120.72,14.8-120.45L742.54,558.1Z"/><path class="cls-20" d="M726.27,674.52l64.19-126.63L758.14,686.41,694.69,811.05Zm2.09.76L701,793.78l55.09-108.12,28-120.24Z"/><path class="cls-20" d="M729,669.27l103.63-97L754.85,691.34,652.59,786.73Zm1.71,1.42-66.27,102,88.75-82.75,67.46-103.4Z"/><path class="cls-20" d="M733.3,665.23,863.86,609.5,750.07,694.83,621.35,749.5Zm1.11,1.92-97.15,73.17L749,692.91l98.75-74.1Z"/><path class="cls-20" d="M738.75,662.94,880.5,655.2,744.38,696.48l-139.65,7.36Zm.38,2.18L622.82,700.65,744,694.3l118.14-35.86Z"/><path class="cls-20" d="M738.48,696.07,604.73,655.22l139.92,7.42L880.5,703.86Zm.38-2.17,123.28,6.72-117.87-35.8-121.45-6.4Z"/><path class="cls-20" d="M733.07,693.69,621.35,609.57,750.3,664.38l113.56,85.19Zm1.11-1.92,113.53,48.48-98.52-74L637.26,618.75Z"/><path class="cls-20" d="M728.79,689.6l-76.2-117.26L755,667.93l77.58,118.92Zm1.7-1.42,90.12,84.38L753.32,669.37l-88.92-83Z"/><path class="cls-20" d="M726.18,684.29,694.69,548l63.54,124.88,32.23,138.26Zm2.08-.76,55.82,110.12-27.93-120L701,565.28Z"/><polygon class="cls-19" points="733.49 434.05 750.57 436.44 768.61 307.88 751.52 305.47 733.49 434.05"/><path class="cls-19" d="M789.05,300H829.2a10.65,10.65,0,0,0,10.66-10.66h0a10.65,10.65,0,0,0-10.66-10.65H789.05a10.66,10.66,0,0,0-10.66,10.65h0A10.66,10.66,0,0,0,789.05,300Z"/><rect class="cls-9" x="565.99" y="755.06" width="4.95" height="59.97" transform="translate(1136.93 1570.1) rotate(180)"/><rect class="cls-9" x="565.99" y="755.07" width="4.95" height="59.97" transform="translate(414.32 1741.98) rotate(-134.94)"/><rect class="cls-9" x="565.99" y="755.07" width="4.95" height="59.97" transform="translate(-216.58 1353.52) rotate(-90)"/><rect class="cls-9" x="565.99" y="755.07" width="4.95" height="59.97" transform="translate(-388.78 632.9) rotate(-45.06)"/><rect class="cls-19" x="565.99" y="483.68" width="170.09" height="64.35" transform="translate(1302.07 1031.71) rotate(180)"/><path class="cls-9" d="M726.65,680.53a15.9,15.9,0,1,0,15.89-15.89A15.91,15.91,0,0,0,726.65,680.53Z"/><path class="cls-6" d="M742.54,551.6a128.93,128.93,0,1,1,0,257.85c-71.08,0-128.92-57.84-128.92-128.92S671.46,551.6,742.54,551.6Zm0-17.88A146.81,146.81,0,1,0,889.36,680.53,146.81,146.81,0,0,0,742.54,533.72Z"/><path class="cls-6" d="M568.47,760.64a24.41,24.41,0,1,1-24.41,24.41,24.44,24.44,0,0,1,24.41-24.41Zm0-17.87a42.28,42.28,0,1,0,42.29,42.28,42.27,42.27,0,0,0-42.29-42.28Z"/><rect class="cls-19" x="587.25" y="449.17" width="148.83" height="23.05" transform="translate(1323.33 921.4) rotate(180)"/><path class="cls-4" d="M692.07,289.39c17.1-4.33,25.77,8.53,28.93,25.6s1.22,107.69-2.43,111.94-31.75,8.91-36.11,2.12-5.82-82.9-6-97.4S672,294.47,692.07,289.39Z"/><path class="cls-4" d="M708.06,413.61c18.64,4.52,6.81,47.81-.3,65.89s-33.16,68.69-33.16,68.69l-20-6.52s21.17-100.2,22.95-105.4S689.1,409,708.06,413.61Z"/><path class="cls-4" d="M674.6,548.19s-.86,15.95-2.83,20.82C669,576,661.14,590.88,654,593.09c-3.93,1.21-13.75-1.73-15.5-5.44-2.2-4.68-4.51-20.08-2.36-26.33s18.48-19.74,18.48-19.74Z"/><path class="cls-21" d="M701.88,287c-15.54-2.9-30,1-28.63,52.89S675.91,404,675.91,404s21.22,7.57,32.19,7.15,15.71-3.38,15.71-3.38,4.84-85.36-1.26-100.45S710.12,288.53,701.88,287Z"/></g></g></svg>