<svg xmlns="http://www.w3.org/2000/svg" xmlns:xlink="http://www.w3.org/1999/xlink" viewBox="0 0 1035.26 755.72"><defs><style>.cls-1{fill:#d6d6d6;}.cls-2{fill:#ffd4b2;}.cls-21,.cls-3{fill:#2d2d2d;}.cls-4{fill:#3e4b62;}.cls-21,.cls-22,.cls-25,.cls-5{opacity:0.2;}.cls-6{fill:#aecdec;}.cls-7{fill:#ff6a4d;}.cls-8{fill:#dc2601;}.cls-9{fill:#ffcdaa;}.cls-10{fill:#3c3c3b;}.cls-11{fill:#dbdef1;}.cls-12{fill:#444;}.cls-13,.cls-25{fill:#ededed;}.cls-14,.cls-24{opacity:0.3;}.cls-15{fill:#dde7f2;}.cls-16{fill:#e6e6e6;}.cls-17{fill:#4dbacc;}.cls-18{fill:url(#linear-gradient);}.cls-19{fill:#5482cc;}.cls-20{fill:#9a9a9a;}.cls-22,.cls-24{fill:#fff;}.cls-23{fill:#fbeec7;}</style><linearGradient id="linear-gradient" x1="640.31" y1="411.94" x2="819.53" y2="411.94" gradientUnits="userSpaceOnUse"><stop offset="0" stop-color="#588bcf"/><stop offset="1" stop-color="#455bc0"/></linearGradient></defs><title>Asset 2</title><g id="Layer_2" data-name="Layer 2"><g id="Layer_1-2" data-name="Layer 1"><polygon class="cls-1" points="560.67 477.53 405.88 480.97 428.62 343.83 541.79 329.4 560.67 477.53"/><rect class="cls-2" x="462.19" y="100.54" width="47.77" height="54.44"/><path class="cls-3" d="M488.62,707.63c-1.23,3.86-2.47,15.35-1.09,19.69,2.56,2.14,8,6.64,9.06,7.31.57-1.07.78-2.92,1.66-3.66.38,1.88,1.47,8.14,1.86,9.49,1.37,1.2,13.57,11.37,17.11,13.53s24.12,2.45,27.6,0,4.5-9.75,2.46-13.53S534.55,722.57,532,720.27c-1.09-3.11-1-12.64-1-12.64Z"/><path class="cls-3" d="M457.65,707.63c1.19,3.86,2.43,15.35,1.09,19.69-2.57,2.14-8,6.64-9.07,7.31-.56-1.07-.77-2.92-1.65-3.66-.39,1.88-1.48,8.14-1.86,9.49-1.37,1.2-13.57,11.37-17.08,13.53s-24.11,2.45-27.63,0-4.5-9.75-2.46-13.53,12.72-17.89,15.32-20.19c1.06-3.11.95-12.64.95-12.64Z"/><path class="cls-4" d="M544.71,474.05c-1.09,44.53-10.54,222.81-10.05,238a30.87,30.87,0,0,1-8.58,2c-14.62,1.8-39.71.63-44-2,0-12-1.09-207.56,0-227.09s.11-64.5-.49-69.33c0,.16-.14.34-.14.5-.91,6.92-7.66,46.58-9,68.83-1.23,19.53-8.68,215.12-8.68,227.09-1.3.75-4.43,1.37-8.61,1.89-13.26,1.55-36.94,1.39-44-1.89.63-15.19-1.38-194.25,1.33-238.78,3-48.22,18.39-143.87,18.39-143.87H541.79S546.12,424.19,544.71,474.05Z"/><path class="cls-5" d="M481.48,416.13c-.91,6.92-7.66,46.58-9,68.83-1.23,19.53-8.68,215.12-8.68,227.09-1.3.75-4.43,1.37-8.61,1.89,1.12-37.78,7.48-211.11,8.61-229C465.14,462.71,480,423.05,481.48,416.13Z"/><path class="cls-5" d="M544.71,474.05c-1.09,44.53-10.54,222.81-10.05,238a30.87,30.87,0,0,1-8.58,2c.88-37.26,8.93-199,10-240,1.41-49.86-2.95-144.65-2.95-144.65h8.68S546.12,424.19,544.71,474.05Z"/><path class="cls-5" d="M462.19,100.54v6.29c.91.68,1.93,1.41,3,2.14,5.87,4,12.62,8.17,12.62,8.17,4.39,2.52,11.42,2.52,15.75,0,0,0,7.2-4.42,13.17-8.53,1.13-.83,2.19-1.57,3.24-2.34v-5.73Z"/><path class="cls-2" d="M453.82,89.8c.56,2.78,3.66,7.86,5.7,9.84a60.71,60.71,0,0,0,6.85,5.29c5.59,3.87,12.12,7.8,12.12,7.8,4.15,2.48,10.93,2.48,15.15,0,0,0,6.93-4.25,12.62-8.2a56.74,56.74,0,0,0,6.33-4.89c2-2,5.09-7.06,5.69-9.84,1.13-5.45,1.13-51.22.63-60.68-.28-6-4.25-13.85-8.72-14.81s-8-1.83-8-1.83c-8.92-1.93-23.37-1.93-32.23,0-3,.63-5.73,1.26-8.08,1.83-4.5,1-8.4,8.78-8.68,14.81C452.66,38.58,452.66,84.35,453.82,89.8Z"/><polygon class="cls-6" points="486.05 138.97 525.59 138.97 525.59 329.4 486.05 329.4 446.47 329.4 446.47 138.97 486.05 138.97"/><polygon class="cls-7" points="476.31 287.1 485.67 296.57 495.86 287.1 490.55 154.79 481.66 154.79 476.31 287.1"/><polygon class="cls-8" points="481.52 154.79 490.55 154.79 495.86 138.97 485.98 138.57 476.21 138.97 481.52 154.79"/><polygon class="cls-9" points="454.84 48.26 448.3 43.48 447.04 51.7 449.39 63.76 454.84 77.75 454.84 48.26"/><polygon class="cls-9" points="517.22 46.85 516.31 76.62 522.53 65.13 524.36 49.63 517.22 46.85"/><path class="cls-10" d="M508.79,27.31c-8.37,6.1-19.23,5.06-31.21-.62S463.45,25.43,461,29c-5,7.28-5.2,31.41-5.2,38.49-1.93-10.16-1.62-18.1-4.46-17.91-6.93.47,1.65,19.8,1.79,25.11C445.91,61.12,440.46,36,451.5,19S478.21,0,483.73,0c10.86,0,28.33,3.29,32.79,14.81,6,3.75,12.9,18.3,9.63,36.7-2.88,16-5.8,19.82-7.1,23.21-1-7.27,8.33-23.58,3.2-24.62s-5.94,11.2-6.47,15C514,50.3,521.3,31.86,508.79,27.31Z"/><path class="cls-11" d="M460.32,115.14s-52.47,22-54.65,24.29c3.3,5.73,17.67,57.13,16.83,68a41.89,41.89,0,0,1-3.41,8.64s9.21,48.06,8.19,54.67S406.62,474.57,405.88,481c8.22,5.59,33.78,8.56,40.59,7.1,2.81-4.27,20.35-147.25,22.29-155.21s.35-61.68.35-61.68-8-108.64-8.93-115.16S460.32,115.14,460.32,115.14Z"/><path class="cls-11" d="M509.88,112.05c4.15,3.93,49.52,20.89,54.79,23.41-6.18,9.08-27.24,69.38-22.21,97.76,5.17,22.72,18.21,244.31,18.21,244.31s-40.32,10.38-58,10.91c-7.1-12.93-18-199.93-18.38-214.82s16.38-122.8,26.75-147.88C514.55,117.39,509.88,112.05,509.88,112.05Z"/><path class="cls-2" d="M435.72,236.21c3.65-3.26,5.55-10,10.16-12.67s18.34-4.5,22.31-1.48,6.82,8.24,4.09,8.09-14-.45-16.46,1.61-5,7.06-5,7.06l-15.36,6Z"/><path class="cls-11" d="M405.67,139.43C397,152.64,384.44,237.07,384,247c-.81,20.3,14.41,31.64,27.17,30.13a98.56,98.56,0,0,0,23.44-5.89l1.12-36.54s-10,1.73-13.11.51c.74-6.36.29-15.16,1.09-25.59.67-1.33-4.46-24.32-7-33.72S408.62,143.14,405.67,139.43Z"/><path class="cls-11" d="M405.67,139.43h0c-8.61,18.4-20.07,95.76-20.46,105.26-.84,20.3,14.41,31.64,27.17,30.13a99.17,99.17,0,0,0,22.28-5.42l0,1.85a98.56,98.56,0,0,1-23.44,5.89c-12.76,1.51-28-9.83-27.17-30.13C384.44,237.07,397,152.64,405.67,139.43Z"/><path class="cls-12" d="M417.13,270.88l11-26.33a8.92,8.92,0,0,1,5.31-4.69L517.12,217c2.11-.56,3,.53,2,2.44l-14.55,27.78a10.18,10.18,0,0,1-5.66,4.54l-79.43,21.7C417.3,274.06,416.28,272.87,417.13,270.88Z"/><path class="cls-2" d="M508.65,253.76c-2.85-2.62-3.66-9-2.95-12.46s4.18-8.85-.53-7.26-8.54,11.5-11.77,13.64-21.51,1.06-26.79,1.15-20.35,6.07-20.73,11c-.57,7.18,5.16,9.37,10.19,9.1s17-1.54,24.57-.49,25.13,2.37,26.6,3.11a39.53,39.53,0,0,0,5.8,1.83L514.55,254Z"/><path class="cls-11" d="M564.67,135.46c5.63,5.22,22.85,104.47,18.88,124s-55,18.47-80,20l4.46-30s30.9-8.33,35.85-10.88l-3.3-11.36C537.82,203.08,553.81,141.42,564.67,135.46Z"/><path class="cls-5" d="M583.72,257.68a13.14,13.14,0,0,1-.17,1.76c-4,19.51-55,18.47-80,20l.6-4C529.88,274.11,576.13,274.13,583.72,257.68Z"/><path class="cls-5" d="M540.39,145.84,490.9,220.51c5.13-37.11,15.36-78.51,19-93.61a109.4,109.4,0,0,0,1.93-13.57c1.34,1.3,13.36,6,21.05,9l6.26,9.44-10.23,5.36Z"/><path class="cls-13" d="M538,145.9,490.9,220.51c5-37.09,14.94-78.5,18.45-93.56,1.27-5.47.53-14.87.53-14.87,1.34,1.31,15.46,7.23,23,10.25l3.52,9.12-9.35,5Z"/><path class="cls-5" d="M431.29,147.83l10.58-11.41-7.94-4.72,12.23-10.55C454.7,117.64,460,116,460,116s-1,33.58.07,40.09c.46,3.35,2.81,33.69,5,62.31Z"/><path class="cls-13" d="M432.84,147.74l10-11.39-7.56-4.78,10.9-10.42c8.12-3.5,14.16-6,14.16-6s-1.12,34.41-.14,40.91c.46,3.36,2.81,33.69,5,62.31Z"/><path class="cls-14" d="M457,132.68a41.83,41.83,0,0,0,4.75,21.69,24.45,24.45,0,0,0,2.46,3.92c.35-.46.77-1,1.23-1.52.74-.89,1.58-1.86,2.56-2.86a186.6,186.6,0,0,1,16.35-14.36v-.07c-13.82-3.27-20.14-10.33-22.14-23.53a17.79,17.79,0,0,0-1.23,2,29.8,29.8,0,0,0-3.2,8.9A32.87,32.87,0,0,0,457,132.68Z"/><path class="cls-15" d="M462.19,112.08c2,13.24,10,23.17,23.86,26.49,0,0-17.22,9.24-21.86,15.85C455.61,143.21,454.28,123.32,462.19,112.08Z"/><path class="cls-14" d="M487.74,139.48v.07a188.56,188.56,0,0,1,16.59,14.57,30.34,30.34,0,0,1,2.38,2.65c.46.55.85,1.06,1.17,1.52a23.26,23.26,0,0,0,2.49-3.92,41.41,41.41,0,0,0,4.71-21.69,29.26,29.26,0,0,0-.53-4.79,5,5,0,0,0-.21-1.09,29.8,29.8,0,0,0-3.2-8.9,19.36,19.36,0,0,0-1.22-2C507.88,129.15,501.66,136.21,487.74,139.48Z"/><path class="cls-15" d="M509.88,112.08c-1.93,13.24-9.95,23.17-23.83,26.49,0,0,17.22,9.24,21.9,15.85C516.52,143.21,517.86,123.32,509.88,112.08Z"/><polygon class="cls-16" points="449 327.96 450.48 340.86 427.18 350 427.18 338.96 449 327.96"/><polygon class="cls-16" points="540.39 339.93 538.03 351.26 509.95 338.96 512.16 327.96 540.39 339.93"/><path class="cls-2" d="M818.12,306.57c.49-5.75,3.76-14.81,7.42-23.32,1.3-3,2.56-5.85,3.83-8.59,3.62-7.82,6.68-13.76,6.68-13.76s-48.09-7.07-47.28,9.17a21.41,21.41,0,0,1-.14,3.37,26.86,26.86,0,0,1-2.53,9c-4.82,10.75-14.48,18.85-14.48,18.85S805.85,309.49,818.12,306.57Z"/><path class="cls-2" d="M837.45,191.43c-7.73-.12-14.72,5.46-20.24,9.75s-9.88,6.51-10.37,8.58a32.23,32.23,0,0,0-1.34,4.94c-.17,1.53-20.63,12.49-21,14.46s3.76,5.29,4.33,6.15c1.54,1.92-.07,3.95-1.09,5.24s-5.06,1.44-5.17,2.58c-.14,2.85,3.52,4.57,3.52,4.57s-4.89-2.42-5.1.42c-.14,1.27,1.3,2.2,1.48,3.83s-6.93,5.31-6.79,7.87c.21,9.53,19,15.23,33,18.68a121.75,121.75,0,0,1,25,.25c5.48.3,39.65-14.86,43.62-30.14s2.35-31.82-7.24-41S848.42,191.64,837.45,191.43Z"/><path class="cls-5" d="M788.74,272.16a37.16,37.16,0,0,1-2.64,10.27c6.43,1.82,42-5,43.27-7.77-4.5.21-11,2.33-18.91,2.86C803.43,277.94,795.38,274.24,788.74,272.16Z"/><path class="cls-10" d="M820,179.62c2.53,3.78,4.74,7,10.12,7.7s20.38-.48,34.73,8c14.65,8.65,24.49,20.79,24.18,38.62-.11,7.68-4.61,21.56-14.45,30s-22.14,12.49-30.08,15.39c-10.8,3.9-20.18,6.47-21,8.73-.35-9.19,9.73-24.44,11.77-28.1,3.38-.22,18.52-6.71,15.54-14.74s-14.63-5.78-23.94.37c4.29-10.55,11.57-20.53,12-30.26-1.09-6-15-15.07-17.5-19.72C817.45,188.44,818.22,182,820,179.62Z"/><path class="cls-17" d="M707,355.07l27.53,40.37c16.83-12.7,39.36-30.15,46.77-36.1,16.84-13.72,19.13-30.45,7.88-44.26-8.26-10.18-22.6-4.59-31.74-1C753.63,315.48,728.71,336.53,707,355.07Z"/><path class="cls-2" d="M519.41,428.76c.73.51,3.51-.25,7.2-1.69,9.45-3.72,24.71-11.82,24.71-11.82S572,418.5,562,421.84a8,8,0,0,0-3.62,2c-1.65,2.13,2.46,4.06,6.29,4.5a14.37,14.37,0,0,0,3.3.16c4.68-.69,18.24-5.43,18.24-5.43,25.31.59,66.71,9.63,83.87,9.54l.42.21,9.28-1.58c9.48-3.67,38.83-26,51-35.48,1-.77,1.93-1.41,2.56-2l-25.59-37.39c-15.64,16.55-36.45,33-38,34.09-26,5.52-64.84,9.14-84.35,11.95l-2.95.44c-6-1.25-29.39-5.75-34.62-2.88C542,403.31,516.63,426.77,519.41,428.76Z"/><path class="cls-5" d="M562,421.84a8,8,0,0,0-3.62,2c4.57,1,9.56,2.78,6.29,4.5a14.37,14.37,0,0,0,3.3.16c4.68-.69,18.24-5.43,18.24-5.43,25.31.59,66.71,9.63,83.87,9.54l.42.21,9.28-1.58c9.48-3.67,38.83-26,51-35.48l-22-32.18c-15.64,16.57-36.45,33-38,34.11-26,5.52-64.85,9.12-84.36,11.95l-3,.44c-6-1.25-29.35-5.75-34.62-2.88-3.66,2-15,12.21-22.25,19.87,9.45-3.72,24.71-11.82,24.71-11.82S572,418.5,562,421.84Z"/><path class="cls-18" d="M702.31,349.05c7.17-12.22,28.22-32.64,39.22-39l.15-.16c.35-.25.91-.42,1.3-.67,3.34-1.81,7.8-3.72,12.23-5.62,9.42-4,19.54-7.7,21.86-7.89a4.32,4.32,0,0,0,1.83,3c2.42,2.25,7.55,4,14,4.43a57.55,57.55,0,0,0,22.67-2.51c1.3-.41,2.57-.78,4-1.3a1.23,1.23,0,0,0-.11.89l-.1.14c-.88,6.82.1,35.8-10.51,48.59-24.75,29.79-79.82,89.35-100,124.58-22.84,39.9-29,49.63-54.09,54.57-3.94-31.09-14.41-105.51-14.41-105.51C648,417,694.68,361.75,702.31,349.05Z"/><path class="cls-11" d="M677.43,526.26l-13.6-108.39L150,446.35c-33.42,1.42-63.23,20.3-66.6,42.21l-6.05,39.61Z"/><path class="cls-5" d="M708.78,465.12c22.11-37.61,80.38-101.66,107.55-134.49-1.41,7-3.73,13.8-7.52,18.36-24.75,29.79-79.82,89.35-100,124.58-22.84,39.9-29,49.63-54.09,54.57-.18-1.26-.32-2.74-.53-4.18C677.32,517.58,684.77,506.08,708.78,465.12Z"/><path class="cls-19" d="M708.78,367.36l27.48,40.38c16.87-12.72,39.4-30.15,46.78-36.1,16.84-13.72,19.16-30.5,7.88-44.26-8.23-10.21-22.57-4.64-31.7-1C755.42,327.76,730.5,348.8,708.78,367.36Z"/><path class="cls-2" d="M549.63,412.22c5.2-2.91,28.51,1.6,34.55,2.83h0c18.28-2.89,59.93-6.48,87.38-12.35,1.58-1.09,22.38-17.51,38.06-34.06l25.52,37.42c-10,7.85-43.37,33.54-53.57,37.41l-9.31,1.6-.39-.2c-17.15.11-58.48-8.87-83.75-9.47,0,0-13.64,4.69-18.31,5.36s-16-3.23-6-6.62S553,427.55,553,427.55s-29.28,15.5-31.88,13.46S543.66,415.58,549.63,412.22Z"/><rect class="cls-20" x="28.72" y="342.65" width="42.1" height="293.55"/><rect class="cls-21" x="28.72" y="342.65" width="42.1" height="5.55"/><rect class="cls-13" x="23.2" y="328.01" width="53.11" height="14.64"/><rect class="cls-13" x="37.33" y="636.2" width="24.96" height="44.9"/><rect class="cls-21" x="37.33" y="636.2" width="24.88" height="7.73"/><path class="cls-3" d="M6.6,712.57a43.17,43.17,0,1,0,43.17-43.18A43.17,43.17,0,0,0,6.6,712.57Z"/><path class="cls-22" d="M38.34,683.89a28.44,28.44,0,0,1,39.72,40.7A40.83,40.83,0,0,0,38.34,683.89Z"/><path class="cls-23" d="M29.84,712.57a19.91,19.91,0,1,0,19.93-19.94A19.91,19.91,0,0,0,29.84,712.57Z"/><path class="cls-5" d="M37.33,661.84V681.1h25V661.57a50.79,50.79,0,0,0-12.09-1.45A44.59,44.59,0,0,0,37.33,661.84Z"/><path class="cls-13" d="M0,712.57s19.23-17.75,28.72-17c8.15.65,21.08,17,21.08,17l35.61-34.81A49.78,49.78,0,0,0,0,712.57Z"/><path class="cls-24" d="M30.68,669.19a40.08,40.08,0,0,1,46.64,8L69,685.37A56.17,56.17,0,0,0,30.68,669.19Z"/><path class="cls-3" d="M46.71,712.54a3.06,3.06,0,1,0,3.06-3.08A3.06,3.06,0,0,0,46.71,712.54Z"/><rect class="cls-20" x="971.04" y="342.65" width="42.14" height="293.55"/><rect class="cls-21" x="971.04" y="342.65" width="42.14" height="5.55"/><rect class="cls-13" x="965.56" y="328.01" width="53.11" height="14.64"/><rect class="cls-13" x="979.69" y="636.2" width="24.92" height="44.9"/><rect class="cls-21" x="979.69" y="636.2" width="24.89" height="7.73"/><path class="cls-3" d="M948.94,712.57a43.16,43.16,0,1,0,43.19-43.18A43.17,43.17,0,0,0,948.94,712.57Z"/><path class="cls-22" d="M980.67,683.89a28.44,28.44,0,0,1,39.72,40.7A40.83,40.83,0,0,0,980.67,683.89Z"/><path class="cls-23" d="M972.17,712.57a19.93,19.93,0,1,0,20-19.94A19.91,19.91,0,0,0,972.17,712.57Z"/><path class="cls-5" d="M979.69,661.84V681.1h24.92V661.57a50.7,50.7,0,0,0-12.05-1.45A44.66,44.66,0,0,0,979.69,661.84Z"/><path class="cls-13" d="M942.33,712.57s19.26-17.75,28.71-17c8.16.65,21.09,17,21.09,17l35.57-34.81a49.76,49.76,0,0,0-85.37,34.81Z"/><path class="cls-24" d="M973.05,669.19a40,40,0,0,1,46.6,8l-8.33,8.17A56.19,56.19,0,0,0,973.05,669.19Z"/><path class="cls-3" d="M989.07,712.54a3,3,0,1,0,3.06-3.08A3,3,0,0,0,989.07,712.54Z"/><path class="cls-23" d="M673.87,529.41,699.54,555a13.23,13.23,0,0,0,18.62.26L733,540.28l9.6-9.43,2.78-2.82,4.46-4.49,2-1.89.07-.15,2.84-2.83,17-17,17-16.91,21.9-21.79,16.83-16.83,1.06-1.13,2.85-2.81,6.43-6.36.21-.23,2.71-2.64,0-.14,8.68-8.63,16.87-16.72,21.9-21.94,16.83-16.71,21.94-21.93,11.7-11.64L943.8,330l5-4.92,0-.11,9.66-9.58a13.15,13.15,0,0,0,.57-17.9,2.35,2.35,0,0,0-.6-.79L934.91,273l-2-2.08a13.39,13.39,0,0,0-12.41-3.56,12.62,12.62,0,0,0-6.44,3.51L793.13,391.61l-2.74,2.65-.18.32-8.29,8.12-2.81,2.81-63.72,63.6-2.85,2.8-.07.19-.14,0-8.09,8.17-2.88,2.85L679.5,505.07,678,506.58l-2.28,2.28c-.42.35-.74.72-1.09.95l-.67.7-.1.18A13.4,13.4,0,0,0,673.87,529.41Z"/><path class="cls-24" d="M701.36,483.15,679.5,505.07c4.81-4.59,12.48-12,22-21.41a31.33,31.33,0,0,0,2.84-2.71c2.67-2.46,5.28-5,8.12-7.66,0-.1.11-.14.21-.19a33.53,33.53,0,0,1,2.88-2.69c19.16-18.42,43.2-41.05,68.23-64.11,1.12-.95,2.11-1.9,3.13-2.74,2.63-2.48,5.2-4.82,7.83-7.17.14-.05.25-.19.39-.21.84-1,1.72-1.72,2.71-2.67,41.4-37.43,83.86-73.63,110.43-91a50.53,50.53,0,0,1,19.5-7.68,57.35,57.35,0,0,1,12.76-.69c11.07.93,18.74,4.36,18.46,3.34a2.35,2.35,0,0,0-.6-.79L934.91,273l-2-2.08a13.39,13.39,0,0,0-12.41-3.56,12.62,12.62,0,0,0-6.44,3.51L793.13,391.61l-2.74,2.65-.18.32-8.29,8.12-2.81,2.81-63.72,63.6-2.85,2.8-.07.19-.14,0-8.09,8.17Z"/><path class="cls-23" d="M70.75,529.07v36.26a13.25,13.25,0,0,0,13.32,13.28H669.94a13.15,13.15,0,0,0,13.28-13.28V529.07a13.23,13.23,0,0,0-13.28-13.27H84.07A13.33,13.33,0,0,0,70.75,529.07Z"/><path class="cls-21" d="M70.75,536.66v28.67a13.25,13.25,0,0,0,13.32,13.28H669.94c7.45,0,83.65-42.37,83.65-42.37Z"/><rect class="cls-13" x="70.82" y="593.65" width="900.54" height="21.16"/><rect class="cls-20" x="70.82" y="540.76" width="900.54" height="42.33"/><rect class="cls-25" x="70.82" y="540.76" width="900.54" height="6.64"/><rect class="cls-21" x="70.82" y="540.76" width="5.48" height="42.33"/><rect class="cls-21" x="965.85" y="540.76" width="5.52" height="42.33"/><path class="cls-11" d="M836.12,343.74a19.6,19.6,0,0,0,13.71-5.5l67.33-64.94a19.43,19.43,0,0,0,.43-27.64,19.82,19.82,0,0,0-27.87-.4l-67.35,64.91a19.51,19.51,0,0,0-.38,27.66A19.71,19.71,0,0,0,836.12,343.74Z"/></g></g></svg>