<svg xmlns="http://www.w3.org/2000/svg" xmlns:xlink="http://www.w3.org/1999/xlink" viewBox="0 0 380.09 798.53"><defs><style>.cls-1{isolation:isolate;}.cls-2{fill:#525fac;}.cls-3{fill:#211c18;}.cls-4{fill:#3e4b62;}.cls-5{fill:#e6ba87;}.cls-6{fill:url(#linear-gradient);}.cls-7{fill:#145566;}.cls-8{fill:#bb6300;}.cls-9{opacity:0.12;mix-blend-mode:multiply;}.cls-10{fill:#fff;}.cls-11{fill:#eacdb0;}.cls-12{fill:url(#linear-gradient-2);}.cls-13{fill:#3e4a62;}.cls-14{fill:url(#linear-gradient-3);}.cls-15{fill:#1a3151;}.cls-16{fill:url(#linear-gradient-4);}.cls-17{fill:#242728;}.cls-18{fill:#dbc0a5;}</style><linearGradient id="linear-gradient" x1="0.44" y1="320.69" x2="242.33" y2="320.69" gradientUnits="userSpaceOnUse"><stop offset="0" stop-color="#588bcf"/><stop offset="1" stop-color="#455bc0"/></linearGradient><linearGradient id="linear-gradient-2" x1="184.64" y1="450.61" x2="267.06" y2="450.61" gradientUnits="userSpaceOnUse"><stop offset="0" stop-color="#ca7500"/><stop offset="1" stop-color="#80183e"/></linearGradient><linearGradient id="linear-gradient-3" x1="199.33" y1="565.78" x2="332.52" y2="565.78" xlink:href="#linear-gradient-2"/><linearGradient id="linear-gradient-4" x1="280.01" y1="532.44" x2="365.96" y2="532.44" xlink:href="#linear-gradient-2"/></defs><title>Asset 1</title><g class="cls-1"><g id="Layer_2" data-name="Layer 2"><g id="Layer_1-2" data-name="Layer 1"><polygon class="cls-2" points="181.58 132.45 207.91 144.36 282.08 295.73 273.95 328.25 232.29 317.07 169.3 185 181.58 132.45"/><path class="cls-3" d="M81,750.42v25.1l16.73,16.73h13a7.49,7.49,0,0,0,6.69-10.84l-3-5.89-8.36-16.73-8.37-16.73Z"/><path class="cls-3" d="M164.08,746.46v25.1l16.73,16.73,13.88-4.62a7.31,7.31,0,0,0,2.85-12.11h0l-8.36-16.73-8.37-16.73Z"/><polygon class="cls-4" points="25.53 456.73 54.88 608.76 74.49 753.83 105.93 753.83 122.62 606.62 136.04 433.35 25.53 456.73"/><polygon class="cls-4" points="207.73 443.35 215 594.13 193.13 751.84 161.93 753.47 149.14 596.52 117.86 456.73 207.73 443.35"/><path class="cls-5" d="M131.35,135.35,159.83,144a185.72,185.72,0,0,0,7.82-25.38c8.73.23,19.21-.55,23.92-9a30.79,30.79,0,0,0,2.77-8.76q3.93-18.7,7.85-37.42c.91-4.31,1.82-8.76,1.18-13.06-1.12-7.55-6.73-13-12.53-17-14.81-10-33.7-13.55-50.57-7-4.48,1.74-8.89,4.26-12.08,8.25C123.27,40.83,122,49.39,121,57.42Q119.48,68.54,118,79.65c-1.12,8.53-1.84,18.45,3.65,24.19,2.92,3,7.22,4.36,9.53,8C135.28,118.27,131,127.36,131.35,135.35Z"/><path d="M159.32,50.89c-7.57,6.91-15.71,12.84-25.4,16.23-6,2.09-11.81,2.37-13.5,9.67-1.61,7,1.48,15.54,6.48,20.22a8.44,8.44,0,0,1,2.28,2.67c.92,2.16-.59,4.79-2.71,5.76s-4.58.62-6.78-.08c-6.69-2.12-12.12-7.28-15.9-13.28-8-12.65-9.06-29.14-4.44-43.51a67.71,67.71,0,0,1,26.58-35.09C137.21,6,148.46-1.77,162.65.36c8,1.2,21,8.55,19.37,18.62C180.33,29.56,166.61,43.8,159.32,50.89Z"/><path d="M183.65,52.63c4.7,5.28,10.4,10.49,11.42,17.35a26,26,0,0,1-.66,9q-1.6,8-4,15.72c-1.67,5.38-4,11.41-8.65,15-1.89,1.48-14.31,6.86-5.23,10.07,2.65.94,5.54-.25,8-1.54,19.42-10.23,33.94-29.46,35.84-50.83A55.57,55.57,0,0,0,210,30.58c-7-9.77-21.74-22.72-35.19-18C156.88,18.85,176.6,44.7,183.65,52.63Z"/><path class="cls-6" d="M213,197.19c2-18.47-.5-46.06-17.48-57.53-14.66-9.91-26.54-11-44-11h-33.1l-7,.47S54.5,166.71,28.09,271.35C3.46,368.91-11.54,505,12.85,508.07a3.24,3.24,0,0,0,1.26-.11c3.66.49,14,1.85,29,3.41h0c19.12,1.1,38.32,1.44,57.47,1.33,33-.18,67.4,1.71,97.85-13.16,23.12-11.3,52.42-26.57,41.61-56.82-6.08-15.84-13.12-34.84-19.92-57.58C193.69,296.75,208.93,233.76,213,197.19Z"/><polygon class="cls-7" points="111.39 129.12 86 139.28 0 274.69 6.1 306.19 104.28 365.83 121.56 340.44 38.25 261.19 104.28 194.14 111.39 129.12"/><path class="cls-8" d="M251.68,206.44c-19-14.14-51.25-18.39-68.52-3.93,5.23-21.91-18.6-52.15-39.73-62.82C87.68,111.52,31,163.12,27.31,219.17c-2,30.16,3.1,60.74,11,90.27,6.62,24.73,27.93,81.68,28.12,81.65.06.19,60.53-6.14,85.62-11.25,29.95-6.09,59.59-15.19,85.71-30.41C286.3,321.16,301.76,243.78,251.68,206.44Z"/><g class="cls-9"><path d="M223.62,346.75a349.09,349.09,0,0,1-73.8,18.58c-24.2,3.27-50.1,3.14-73.15-5.82A80.43,80.43,0,0,1,48.22,341c8.31,24.28,17.9,49.79,18,49.77,0,.18,60.53-6.15,85.61-11.25,30-6.1,59.6-15.2,85.71-30.42a85.28,85.28,0,0,0,22.18-18.77A261.7,261.7,0,0,1,223.62,346.75Z"/></g><path class="cls-10" d="M234.33,330l-42.27-24.6,20.85-67.29c1-3.24-3-5.45-5.46-3.38l-94.65,81q-2.73,2.36-5.48,4.69,9.62-40,19.24-80,1.53-6.41,3.08-12.82c.62-2.58-2.18-5.49-4.75-3.88L89,246.19,42.48,217.4c-3.64-2.26-7.15,3.4-3.5,5.66l48.27,29.87a3.27,3.27,0,0,0,3.31.11l30.75-19.22q-9.86,41-19.73,82.06-1.55,6.4-3.08,12.82a3.35,3.35,0,0,0,5.45,3.38l94.65-81,4.53-3.88Q194,276.62,184.91,306a3.39,3.39,0,0,0,1.44,3.77l44.48,25.89C234.52,337.84,238,332.19,234.33,330Z"/><polygon class="cls-2" points="0 275.08 18.69 244.96 158.78 352.9 133.38 378.3 6.23 306.23 0 275.08"/><polygon class="cls-2" points="282.08 295.73 260.61 264.34 165.24 230.71 153.05 252.05 250.06 321.83 273.95 328.25 282.08 295.73"/><polygon class="cls-11" points="162.92 234.78 140.86 219.54 109.36 222.59 110.38 234.78 143.91 246.97 155.66 247.48 162.92 234.78"/><polygon class="cls-12" points="267.06 457.09 221.14 447.67 196.42 406.46 184.64 415.88 202.31 471.22 241.16 494.76 267.06 457.09"/><polygon class="cls-13" points="227.03 650.18 227.03 774.98 245.87 774.98 257.64 699.63 268.24 641.94 227.03 650.18"/><polygon class="cls-13" points="268.24 637.23 275.3 691.39 284.72 778.51 303.56 777.34 303.56 710.22 312.98 641.94 268.24 637.23"/><path class="cls-14" d="M259.41,455.32s-20-3.53-28.26,27.08-30.61,120.09-31.79,167.19S228.8,666.07,265.29,672s66.53,6.48,66.53-14.72S344.77,455.91,259.41,455.32Z"/><path class="cls-11" d="M247.92,394.48c16.67-29.4,54-10.59,56.58,18.7,1.45,16.65-9.69,44.43-29.31,43-1.22,2.69-3.37,7.78-6.12,8.91-3,1.23-9.58-3.16-12.2-4.79A4.63,4.63,0,0,1,255,458.6c-.47-1,.06-2.92.78-5.06a27.56,27.56,0,0,1-6-3.44c-8.1-6.11-11.82-16.82-11.4-27S242.91,403.31,247.92,394.48Z"/><path class="cls-15" d="M271.19,386.84s26.67,6.67,26.67,17.78c0,16.71,1.11,27.92,0,37.86l18.9-11.18,11.11-31.13s-2.22-25.56-15.56-30-41.12-8.89-41.12-8.89l-21.12,6.67-15.56-1.11,5.38,46.68S246.73,380.17,271.19,386.84Z"/><polygon class="cls-16" points="280.01 459.44 312.98 471.22 342.41 544.21 365.96 597.2 353.01 605.44 315.33 552.46 280.01 459.44"/><polygon class="cls-11" points="353.01 605.44 361.25 617.21 365.96 612.5 380.09 612.5 365.96 597.2 353.01 605.44"/><polygon class="cls-17" points="227.03 774.98 216.43 785.58 221.14 792.64 242.34 785.58 242.34 774.98 227.03 774.98"/><polygon class="cls-17" points="287.86 778.32 291.79 793.82 304.74 798.53 311.8 795 300.84 777.5 287.86 778.32"/><polygon class="cls-11" points="193.32 408.56 194.21 390.25 172.78 382.75 163.13 392.39 169.56 399.9 186.23 414.24 193.32 408.56"/><polygon class="cls-18" points="152.06 359.5 175.84 373.43 183.43 403.76 169.34 407.01 150.93 386.43 136.04 375.32 152.06 359.5"/></g></g></g></svg>