<svg xmlns="http://www.w3.org/2000/svg" xmlns:xlink="http://www.w3.org/1999/xlink" viewBox="0 0 452.44 480"><defs><style>.cls-1{fill:none;}.cls-2{fill:url(#linear-gradient);}</style><linearGradient id="linear-gradient" y1="240" x2="452.44" y2="240" gradientUnits="userSpaceOnUse"><stop offset="0" stop-color="#2b66b4"/><stop offset="1" stop-color="#ae4148"/></linearGradient></defs><title>Asset 1</title><g id="Layer_2" data-name="Layer 2"><g id="Capa_1" data-name="Capa 1"><path class="cls-1" d="M96,96a8,8,0,0,0,8-8V80a8,8,0,0,0-16,0v8A8,8,0,0,0,96,96Z"/><path class="cls-1" d="M48,152h96V48H48Zm28.16-50.52A23.84,23.84,0,0,1,72,88V80a24,24,0,0,1,48,0v8a23.91,23.91,0,0,1-4.16,13.48A39.86,39.86,0,0,1,136,136a8,8,0,0,1-8,8H64a8,8,0,0,1-8-8A39.86,39.86,0,0,1,76.16,101.48Z"/><path class="cls-1" d="M304,72h36.69L296,27.31V64A8,8,0,0,0,304,72Z"/><path class="cls-1" d="M96,112a24,24,0,0,0-22.63,16h45.26A24,24,0,0,0,96,112Z"/><path class="cls-1" d="M416.65,129.61a8,8,0,0,0-10.45,4.33l-15.31,36.95L405.67,177l15.31-37A8,8,0,0,0,416.65,129.61Z"/><rect class="cls-1" x="237.29" y="284.18" width="223.98" height="16" transform="translate(-54.41 502.88) rotate(-67.47)"/><polygon class="cls-1" points="296.25 420.06 304.12 412 296.39 408.8 296.25 420.06"/><path class="cls-2" d="M368,168V80c0-.17-.09-.32-.1-.5a7.76,7.76,0,0,0-.41-2.07,7.34,7.34,0,0,0-.27-.74,8,8,0,0,0-1.6-2.35l-72-72a7.77,7.77,0,0,0-2.35-1.6c-.24-.11-.48-.17-.73-.26a8.18,8.18,0,0,0-2.08-.42c-.14,0-.29-.06-.46-.06H8A8,8,0,0,0,0,8V472a8,8,0,0,0,8,8H360a8,8,0,0,0,8-8V360H352V464H16V16H280V64a24,24,0,0,0,24,24h48v80ZM304,72a8,8,0,0,1-8-8V27.31L340.69,72ZM115.84,101.48A23.91,23.91,0,0,0,120,88V80a24,24,0,0,0-48,0v8a23.84,23.84,0,0,0,4.16,13.48A39.86,39.86,0,0,0,56,136a8,8,0,0,0,8,8h64a8,8,0,0,0,8-8A39.86,39.86,0,0,0,115.84,101.48ZM88,80a8,8,0,0,1,16,0v8a8,8,0,0,1-16,0ZM73.37,128a24,24,0,0,1,45.26,0ZM160,160V40a8,8,0,0,0-8-8H40a8,8,0,0,0-8,8V160a8,8,0,0,0,8,8H152A8,8,0,0,0,160,160Zm-16-8H48V48h96Zm80-48v16H192V104Zm96,16H240V104h80Zm0,40H192V144H320Zm0,64H56V208H320Zm0,48H56V256H320ZM88,320H56V304H88Zm216,0H104V304H304Zm-24,56H56V360H280ZM447.7,159.8l-14.82-6.65,2.89-7a24,24,0,0,0-44.35-18.4L281.15,393.86a7.91,7.91,0,0,0-.61,3L280,439.9a8,8,0,0,0,4.94,7.49A7.85,7.85,0,0,0,288,448a8,8,0,0,0,5.73-2.4l30.09-30.82a8.37,8.37,0,0,0,1.67-2.53L426.75,167.94l7.31,3.27-21.54,52,14.78,6.12,24.52-59.12A8,8,0,0,0,447.7,159.8ZM296.25,420.06l.14-11.26,7.73,3.2Zm17.52-21.37L299,392.56l85.81-206.9,14.78,6.13ZM421,140.06l-15.31,37-14.78-6.13,15.31-36.95A8,8,0,1,1,421,140.06Z"/></g></g></svg>