<svg xmlns="http://www.w3.org/2000/svg" xmlns:xlink="http://www.w3.org/1999/xlink" viewBox="0 0 476.32 442.23"><defs><style>.cls-1{fill:url(#linear-gradient);}</style><linearGradient id="linear-gradient" y1="221.12" x2="476.32" y2="221.12" gradientUnits="userSpaceOnUse"><stop offset="0" stop-color="#bc5647"/><stop offset="1" stop-color="#ee8227"/></linearGradient></defs><title>Asset 1</title><g id="Layer_2" data-name="Layer 2"><g id="Layer_1-2" data-name="Layer 1"><path id="Credit_Card-5" data-name="Credit Card-5" class="cls-1" d="M472,247.2a32.21,32.21,0,0,0-43.72-11.71L360,274.88a30.74,30.74,0,0,0-6.31-9.5A31.78,31.78,0,0,0,331.12,256h-120a8,8,0,0,0-3.89,1l-52.91,29.44L145.4,262a8,8,0,0,0-10.25-4.8h0L60,284.51a8,8,0,0,0-4.81,10.24v0l2.73,7.51L5.28,321.45a8,8,0,0,0-4.8,10.24h0L38.81,437a8,8,0,0,0,10.25,4.8h0l52.63-19.15,2.74,7.51a8,8,0,0,0,10.24,4.8h0l75.2-27.37a8,8,0,0,0,4.8-10.24h0l-2-5.3h90.4a8,8,0,0,0,4-1.07l173.2-100a31.72,31.72,0,0,0,16-27.73A32.3,32.3,0,0,0,472,247.2ZM51.12,424l-32.8-90.21,45.1-16.41,32.84,90.2Zm65.6-6.85L73,296.8l60.13-21.9,43.78,120.3Zm335.6-140.08L281,376H186.89l-27-74.32L213.19,272H331.12a15.85,15.85,0,0,1,11.3,4.7,15.31,15.31,0,0,1,3.77,6.15,13.73,13.73,0,0,1,.93,5.15,16,16,0,0,1-16,16h-88v16h88a31.94,31.94,0,0,0,31.61-28.2l73.55-42.45a16,16,0,0,1,16,27.72ZM91.12,240h288a40.05,40.05,0,0,0,40-40V40a40.05,40.05,0,0,0-40-40h-288a40,40,0,0,0-40,40V200A40,40,0,0,0,91.12,240Zm-24-200a24,24,0,0,1,24-24h288a24,24,0,0,1,24,24V200a24,24,0,0,1-24,24h-288a24,24,0,0,1-24-24h0Zm40,72h64a8,8,0,0,0,8-8V56a8,8,0,0,0-8-8h-64a8,8,0,0,0-8,8v48A8,8,0,0,0,107.12,112Zm8-48h48V96h-48Zm184,128A31.74,31.74,0,0,0,319,184.85a32,32,0,1,0,0-49.7A31.94,31.94,0,1,0,299.12,192Zm56-32a16,16,0,0,1-16,16,15.69,15.69,0,0,1-10.4-3.89,31.57,31.57,0,0,0,0-24.22,15.69,15.69,0,0,1,10.4-3.89A16,16,0,0,1,355.12,160Zm-56-16a16,16,0,1,1-16,16A16,16,0,0,1,299.12,144Zm56-88h16V88h-16Zm-32,0h16V88h-16Zm-32,0h16V88h-16Zm-32,0h16V88h-16Zm-160,88h16v16h-16Zm32,0h16v16h-16Zm32,0h16v16h-16Zm32,0h16v16h-16Zm-96,32h112v16h-112Z"/></g></g></svg>