<svg xmlns="http://www.w3.org/2000/svg" xmlns:xlink="http://www.w3.org/1999/xlink" viewBox="0 0 480 480"><defs><style>.cls-1{fill:url(#linear-gradient);}</style><linearGradient id="linear-gradient" y1="240" x2="480" y2="240" gradientUnits="userSpaceOnUse"><stop offset="0" stop-color="#258dcc"/><stop offset="1" stop-color="#3466b0"/></linearGradient></defs><title>Asset 1</title><g id="Layer_2" data-name="Layer 2"><g id="Layer_1-2" data-name="Layer 1"><path id="Layer_2-2" data-name="Layer 2" class="cls-1" d="M440,144H352V104a4,4,0,0,0-.11-.5,7.24,7.24,0,0,0-.4-2.06q-.12-.39-.27-.75a8,8,0,0,0-1.6-2.35l-96-96a8,8,0,0,0-2.35-1.6c-.24-.1-.47-.17-.72-.25a7.6,7.6,0,0,0-2.11-.42c-.13,0-.27-.07-.44-.07H40A40.05,40.05,0,0,0,0,40V408a40.05,40.05,0,0,0,40,40H208.8A40.07,40.07,0,0,0,248,480H440a40.05,40.05,0,0,0,40-40V184A40.05,40.05,0,0,0,440,144ZM324.69,96H264a8,8,0,0,1-8-8V27.31ZM16,408V40A24,24,0,0,1,40,16H240V88a24,24,0,0,0,24,24h72v32H248a40.05,40.05,0,0,0-40,40V432H40A24,24,0,0,1,16,408Zm448,32a24,24,0,0,1-24,24H248a24,24,0,0,1-24-24h0V184a24,24,0,0,1,24-24H440a24,24,0,0,1,24,24ZM408,176H280a40.05,40.05,0,0,0-40,40v32a40.05,40.05,0,0,0,40,40H408a40.05,40.05,0,0,0,40-40V216A40.05,40.05,0,0,0,408,176Zm24,72a24,24,0,0,1-24,24H280a24,24,0,0,1-24-24V216a24,24,0,0,1,24-24H408a24,24,0,0,1,24,24ZM272,304a32,32,0,1,0,32,32A32,32,0,0,0,272,304Zm0,48a16,16,0,1,1,16-16A16,16,0,0,1,272,352Zm72-48a32,32,0,1,0,32,32A32,32,0,0,0,344,304Zm0,48a16,16,0,1,1,16-16A16,16,0,0,1,344,352Zm-72,32a32,32,0,1,0,32,32A32,32,0,0,0,272,384Zm0,48a16,16,0,1,1,16-16A16,16,0,0,1,272,432Zm72-48a32,32,0,1,0,32,32A32,32,0,0,0,344,384Zm0,48a16,16,0,1,1,16-16A16,16,0,0,1,344,432Zm72-128a32,32,0,0,0-32,32v80a32,32,0,0,0,64,0V336A32,32,0,0,0,416,304Zm16,112a16,16,0,0,1-32,0V336a16,16,0,0,1,32,0ZM82.34,141.66a8,8,0,0,0,11.31,0h0l72-72a8,8,0,0,0-11.32-11.32l-72,72a8,8,0,0,0,0,11.31ZM128,128a24,24,0,1,0,24-24A24,24,0,0,0,128,128Zm32,0a8,8,0,1,1-8-8A8,8,0,0,1,160,128ZM96,96A24,24,0,1,0,72,72,24,24,0,0,0,96,96Zm0-32a8,8,0,1,1-8,8A8,8,0,0,1,96,64ZM56,216h96a8,8,0,0,0,0-16H56a8,8,0,0,0,0,16Zm112,16H56a8,8,0,0,0,0,16H168a8,8,0,0,0,0-16ZM88,264H56a8,8,0,0,0,0,16H88a8,8,0,0,0,0-16Zm80,0H120a8,8,0,0,0,0,16h48a8,8,0,0,0,0-16Z"/></g></g></svg>