<?xml version="1.0" encoding="utf-8"?>
<!-- Generator: Adobe Illustrator 24.0.1, SVG Export Plug-In . SVG Version: 6.00 Build 0)  -->
<svg version="1.1" id="Layer_1" xmlns="http://www.w3.org/2000/svg" xmlns:xlink="http://www.w3.org/1999/xlink" x="0px" y="0px"
	 viewBox="0 0 300 300" style="enable-background:new 0 0 300 300;" xml:space="preserve">
<style type="text/css">
	.st0{fill:url(#SVGID_1_);}
</style>
<title>Asset 1</title>
<linearGradient id="SVGID_1_" gradientUnits="userSpaceOnUse" x1="0" y1="149.9" x2="300" y2="149.9">
	<stop  offset="0" style="stop-color:#FF9D00"/>
	<stop  offset="1" style="stop-color:#ED1C24"/>
</linearGradient>
<path class="st0" d="M206.2,256.2h56.2v12.5h-56.2V256.2z M275,81.2c0-27.6-22.4-50-50-50s-50,22.4-50,50s22.4,50,50,50
	S275,108.9,275,81.2z M187.5,81.2c0-20.7,16.8-37.5,37.5-37.5s37.5,16.8,37.5,37.5s-16.8,37.5-37.5,37.5S187.5,102,187.5,81.2z
	 M239.3,64.3l-20.6,20.6l-8.1-8.1l-8.8,8.8l12.5,12.5c2.4,2.4,6.4,2.4,8.8,0l0,0l25-25L239.3,64.3z M125,162.5h87.5V175H125V162.5z
	 M287.5,268.8c0,10.3-8.4,18.7-18.7,18.8l0,0h-150c-10.3,0-18.7-8.4-18.8-18.7l0,0V125h37.5c13.8,0,25-11.2,25-25s-11.2-25-25-25
	H100V58.8l37.5-37.5v22.4c0,3.5-2.8,6.2-6.2,6.2h-12.5v12.5h12.5c10.3,0,18.7-8.4,18.8-18.7l0,0V12.5h118.8
	c10.3,0,18.7,8.4,18.8,18.7l0,0v87.5H300V31.2C300,14,286,0,268.8,0h-125c-0.3,0-0.7,0-1,0.1c-0.1,0-0.1,0-0.2,0l-0.3,0.1
	c-0.1,0-0.2,0-0.3,0.1l-0.2,0.1l-0.4,0.1l-0.1,0.1l-0.4,0.2l-0.1,0.1c-0.1,0.1-0.3,0.1-0.4,0.2l-0.2,0.1c-0.1,0.1-0.2,0.1-0.3,0.2
	c-0.2,0.1-0.3,0.3-0.5,0.4l-50,50c-1.2,1.2-1.8,2.8-1.8,4.4V75H68.8c-16.9,0-32.3,9.7-39.5,25h-23c-3.4,0-6.2,2.8-6.2,6.2v6.2h25.5
	c-0.3,2.1-0.5,4.2-0.5,6.2h12.5c0-17.2,14-31.2,31.2-31.2h68.8c6.9,0,12.5,5.6,12.5,12.5s-5.6,12.5-12.5,12.5H68.8V125h18.8v75H68.8
	c-17.2,0-31.2-14-31.2-31.2H25c0,2.1,0.2,4.2,0.5,6.2H0v6.2c0,3.5,2.8,6.2,6.2,6.2h23c7.3,15.3,22.6,25,39.5,25h18.7v56.2
	c0,17.2,14,31.2,31.2,31.2h150c17.2,0,31.2-14,31.2-31.2v-87.5h-12.5v87.7H287.5z M294.6,162.8c7.2-7.2,7.2-18.9,0-26.2l0,0
	c-7.3-7-18.8-7-26.2,0l-86.7,86.7c-0.5,0.5-0.9,1-1.2,1.6l-15.6,31.2H125v12.5h43.8c1,0,1.9-0.2,2.8-0.6l34.7-17.4
	c0.6-0.3,1.1-0.7,1.6-1.2L294.6,162.8L294.6,162.8z M182.7,248.5l5.1-10.2l5.1,5.1L182.7,248.5z M203.4,236.4l-8.5-8.5l56.2-56.2
	l8.5,8.5L203.4,236.4z M285.7,154L285.7,154L285.7,154l-17.3,17.3l-8.5-8.5l17.3-17.3c2.4-2.3,6.1-2.3,8.5,0
	C288.1,147.9,288.1,151.7,285.7,154z M125,225h37.5v12.5H125V225z M125,193.8h56.2v12.5H125V193.8z M237.5,225h25v12.5h-25V225z"/>
</svg>
