<?xml version="1.0" encoding="utf-8"?>
<!-- Generator: Adobe Illustrator 24.0.1, SVG Export Plug-In . SVG Version: 6.00 Build 0)  -->
<svg version="1.1" id="Layer_1" xmlns="http://www.w3.org/2000/svg" xmlns:xlink="http://www.w3.org/1999/xlink" x="0px" y="0px"
	 viewBox="0 0 287.9 300" style="enable-background:new 0 0 287.9 300;" xml:space="preserve">
<style type="text/css">
	.st0{fill:url(#SVGID_1_);}
</style>
<title>Asset 1</title>
<linearGradient id="SVGID_1_" gradientUnits="userSpaceOnUse" x1="287.923" y1="149.95" x2="-2.300466e-02" y2="149.95">
	<stop  offset="0" style="stop-color:#ED1C24"/>
	<stop  offset="1" style="stop-color:#FF9D00"/>
</linearGradient>
<path class="st0" d="M274,153.9c-1.2-2.5-1.2-5.3,0-7.8l11.2-22.9c6.3-12.7,1.3-28-11.2-34.6l-22.5-11.9c-2.4-1.3-4.1-3.6-4.6-6.3
	l-4.4-25.1C240.1,31.4,227,21.9,213,24l-25.2,3.6c-2.7,0.4-5.4-0.5-7.4-2.4L162.1,7.4c-10.1-9.9-26.3-9.9-36.4,0l-18.3,17.7
	c-2,1.9-4.7,2.8-7.4,2.4L74.8,24c-14-2.1-27,7.4-29.4,21.3L41,70.4c-0.5,2.7-2.2,5-4.6,6.3L13.9,88.6c-12.5,6.6-17.5,22-11.2,34.6
	l11.2,22.9c1.2,2.5,1.2,5.3,0,7.8L2.7,176.8c-6.3,12.7-1.3,28,11.2,34.6l22.5,11.9c2.4,1.3,4.1,3.6,4.6,6.3l4.4,25.1
	c2.1,12.5,13,21.7,25.7,21.6c1.3,0,2.5-0.1,3.7-0.3l25.2-3.6c2.7-0.4,5.4,0.5,7.4,2.4l18.3,17.7c10.1,9.9,26.3,9.9,36.4,0l18.3-17.7
	c2-1.9,4.7-2.8,7.4-2.4L213,276c14,2,27-7.5,29.4-21.4l4.4-25.1c0.5-2.7,2.2-5,4.6-6.3l22.5-11.9c12.5-6.6,17.5-21.9,11.2-34.6
	L274,153.9z M258.5,161.5l11.2,22.9c2.1,4.3,0.4,9.5-3.8,11.7l-22.5,12c-7.1,3.8-12.1,10.6-13.5,18.6l-4.4,25.1
	c-0.8,4.7-5.3,7.9-10,7.2l-25.2-3.6c-8-1.2-16.1,1.5-21.9,7.1l-18.3,17.7c-3.4,3.3-8.9,3.3-12.3,0l-18.3-17.7
	c-4.9-4.7-11.4-7.4-18.1-7.4c-1.2,0-2.5,0.1-3.7,0.3l-25.2,3.5c-4.7,0.7-9.2-2.5-10-7.2L58,226.6c-1.4-8-6.3-14.8-13.5-18.6L22,196
	c-4.2-2.2-5.9-7.4-3.8-11.7l11.2-22.9c3.6-7.2,3.6-15.8,0-23l0,0l-11.2-22.8c-2.1-4.3-0.4-9.5,3.8-11.7L44.5,92
	c7.1-3.8,12.1-10.6,13.5-18.6l4.4-25.1c0.8-4.7,5.3-7.9,10-7.2l25.2,3.6c8,1.2,16.1-1.5,21.8-7.1l18.3-17.7c3.4-3.3,8.9-3.3,12.3,0
	l18.3,17.7c5.8,5.6,13.9,8.3,21.9,7.1l25.2-3.6c4.7-0.7,9.2,2.5,10,7.2l4.4,25.1c1.4,8,6.3,14.8,13.5,18.6l22.5,11.9
	c4.2,2.2,5.9,7.4,3.8,11.7l-11.2,22.9C254.9,145.8,254.9,154.2,258.5,161.5L258.5,161.5z M207.1,86.8c-3.4-3.4-8.8-3.4-12.2,0l0,0
	L80.7,201c-3.4,3.4-3.4,8.9,0,12.2c3.4,3.4,8.9,3.4,12.2,0L207.1,99C210.5,95.6,210.5,90.2,207.1,86.8z M109.3,135.6
	c17.5,0,31.7-14.2,31.7-31.7s-14.2-31.7-31.7-31.7s-31.7,14.2-31.7,31.7C77.6,121.4,91.8,135.6,109.3,135.6z M109.3,89.4
	c8,0,14.4,6.5,14.4,14.4s-6.5,14.4-14.4,14.4s-14.4-6.5-14.4-14.4l0,0C94.9,95.9,101.4,89.4,109.3,89.4z M178.5,164.4
	c-17.5,0-31.7,14.2-31.7,31.7s14.2,31.7,31.7,31.7s31.7-14.2,31.7-31.7S196,164.4,178.5,164.4z M178.5,210.6
	c-8,0-14.4-6.5-14.4-14.5s6.5-14.4,14.5-14.4c7.9,0,14.4,6.5,14.4,14.4C193,204.1,186.5,210.6,178.5,210.6L178.5,210.6z"/>
</svg>
