<?xml version="1.0" encoding="utf-8"?>
<!-- Generator: Adobe Illustrator 24.0.1, SVG Export Plug-In . SVG Version: 6.00 Build 0)  -->
<svg version="1.1" id="Layer_1" xmlns="http://www.w3.org/2000/svg" xmlns:xlink="http://www.w3.org/1999/xlink" x="0px" y="0px"
	 viewBox="0 0 246.8 300.8" style="enable-background:new 0 0 246.8 300.8;" xml:space="preserve">
<style type="text/css">
	.st0{fill:url(#Layer_2_2_);}
</style>
<title>Asset 1</title>
<linearGradient id="Layer_2_2_" gradientUnits="userSpaceOnUse" x1="-0.1" y1="150.3625" x2="246.7027" y2="150.3625">
	<stop  offset="0" style="stop-color:#FF9D00"/>
	<stop  offset="1" style="stop-color:#ED1C24"/>
</linearGradient>
<path id="Layer_2_1_" class="st0" d="M122.8,35.2c3.2,0.3,6.1-2,6.4-5.3s-2-6.1-5.3-6.4c-3.2-0.3-6.1,2-6.4,5.3c0,0.2,0,0.4,0,0.6
	C117.5,32.4,119.8,34.9,122.8,35.2z M240.9,35.2c-16.2,0-29.4-13.2-29.4-29.4c0-3.2-2.6-5.9-5.9-5.9H41.1c-3.2,0-5.9,2.6-5.9,5.9
	l0,0C35.2,22,22,35.1,5.8,35.2c-3.2,0-5.9,2.6-5.9,5.9l0,0V137c0,75.4,49.4,141.9,121.7,163.6c1.1,0.3,2.3,0.3,3.4,0
	C197.2,279,246.7,212.5,246.7,137V41.1C246.8,37.9,244.1,35.3,240.9,35.2C240.9,35.3,240.9,35.2,240.9,35.2z M235,137
	c0,70.2-44.8,131-111.6,151.8C56.9,268.1,11.7,206.6,11.8,137V46.6C29.8,44,44,29.8,46.6,11.8h153.6c2.6,18,16.8,32.2,34.8,34.8
	L235,137L235,137z M192.4,27c-0.9-2.1-3.1-3.5-5.4-3.5h-40.1c-3.2-0.1-6,2.4-6.1,5.6s2.4,6,5.6,6.1c0.2,0,0.3,0,0.5,0h36.4
	c6.2,12.1,16.1,22,28.2,28.2V137c0,57.5-34.5,107.1-88.1,127c-53.6-19.9-88.1-69.5-88.1-127V63.4c12.1-6.2,22-16.1,28.2-28.2H100
	c3.2,0.1,6-2.4,6.1-5.6s-2.4-6-5.6-6.1c-0.2,0-0.3,0-0.5,0H59.7c-2.3,0-4.4,1.4-5.4,3.5C49,39.2,39.2,49,27,54.3
	c-2.1,0.9-3.5,3-3.5,5.4V137c-0.3,62.4,39,118.1,97.9,138.8c1.3,0.5,2.7,0.5,3.9,0c58.9-20.6,98.2-76.3,97.9-138.8V59.7
	c0-2.3-1.4-4.4-3.5-5.4C207.5,49,197.8,39.2,192.4,27z M70.5,138.7c0,29.2,23.7,52.9,52.9,52.9s52.9-23.7,52.9-52.9
	s-23.7-52.9-52.9-52.9C94.2,85.8,70.5,109.5,70.5,138.7z M164.5,138.7c0,22.7-18.4,41.1-41.1,41.1s-41.1-18.4-41.1-41.1
	s18.4-41.1,41.1-41.1C146.1,97.5,164.5,115.9,164.5,138.7L164.5,138.7z M109.9,140.4c-2.4-2.2-6.1-2.1-8.3,0.3c-2.1,2.3-2.1,5.7,0,8
	l11.8,11.8c2.3,2.3,6,2.3,8.3,0l29.3-29.4c2.2-2.4,2.1-6.1-0.3-8.3c-2.3-2.1-5.7-2.1-8,0L117.5,148L109.9,140.4z"/>
</svg>
