<?xml version="1.0" encoding="utf-8"?>
<!-- Generator: Adobe Illustrator 24.0.1, SVG Export Plug-In . SVG Version: 6.00 Build 0)  -->
<svg version="1.1" id="Layer_1" xmlns="http://www.w3.org/2000/svg" xmlns:xlink="http://www.w3.org/1999/xlink" x="0px" y="0px"
	 viewBox="0 0 300.2 267.7" style="enable-background:new 0 0 300.2 267.7;" xml:space="preserve">
<style type="text/css">
	.st0{fill:url(#SVGID_1_);}
</style>
<title>Asset 1</title>
<linearGradient id="SVGID_1_" gradientUnits="userSpaceOnUse" x1="300.3" y1="133.8" x2="1.2012" y2="133.8">
	<stop  offset="0" style="stop-color:#ED1C24"/>
	<stop  offset="1" style="stop-color:#FF9D00"/>
</linearGradient>
<path class="st0" d="M150.1,177c4.1,0,7.5,3.4,7.5,7.5s-3.4,7.5-7.5,7.5s-7.5-3.4-7.5-7.5S146,177,150.1,177z M282.1,0h-264
	C8.1,0,0,8.1,0,18.1v182.4c0,10,8.1,18.1,18.1,18.1h90.5v13.2c0,12.1-9.8,21.9-21.9,21.9h-20c-3.8,0.1-6.8,3.4-6.7,7.2
	c0.1,3.6,3,6.5,6.7,6.7h166.8c3.8-0.1,6.8-3.4,6.7-7.2c-0.1-3.6-3-6.5-6.7-6.7h-19.9c-12.1,0-21.9-9.8-21.9-21.9v-13.2h90.5
	c10,0,18.1-8.1,18.1-18.1V18.1C300.2,8.1,292.1,0,282.1,0z M18.1,13.9h264c2.4,0,4.3,1.9,4.3,4.3v132.2H13.8V18.1
	C13.8,15.8,15.8,13.9,18.1,13.9L18.1,13.9z M177.8,231.9c0,8,2.6,15.7,7.5,21.9h-70.5c4.9-6.3,7.5-14,7.5-21.9v-13.2h55.4
	L177.8,231.9L177.8,231.9z M282.1,204.8h-264c-2.4,0-4.3-1.9-4.3-4.3v-36.4h272.6v36.4C286.4,202.9,284.5,204.8,282.1,204.8
	L282.1,204.8z M180.9,78.1L122,63.5c-1-0.2-2,0.3-2.2,1.3c-0.1,0.5,0,1,0.2,1.4l31.2,51.7c0.5,0.9,1.6,1.1,2.5,0.6
	c0.2-0.1,0.4-0.3,0.5-0.4l6.7-8.9c1.5-2,4.4-2.5,6.4-0.9l0,0l9,6.7c2.4,1.8,5.6,1.9,8.2,0.4c0.8-0.5,1.5-1.1,2.1-1.9
	c2.4-3.3,1.7-7.8-1.5-10.3l-9-6.7c-2-1.5-2.4-4.4-0.9-6.4L182,81c0.4-0.5,0.5-1.1,0.3-1.7C181.9,78.6,181.4,78.2,180.9,78.1
	L180.9,78.1z M172.2,87.8c-2.7,3.6-2,8.8,1.7,11.5l9,6.7c1.6,1.2,2,3.5,0.8,5.1l0,0c-1.2,1.6-3.5,2-5.1,0.7l-8.9-6.7
	c-2.7-2-6.3-2.2-9.2-0.5c-0.9,0.5-1.7,1.3-2.4,2.1l-5,6.8l-27.5-45.6l51.9,12.9L172.2,87.8z M153.9,108.2c0.9-0.5,1.1-1.6,0.6-2.5
	l0,0l-13.3-22.1c-0.6-0.8-1.7-1-2.5-0.5c-0.7,0.5-1,1.5-0.6,2.3l13.3,22.1C151.9,108.5,153,108.8,153.9,108.2
	C153.9,108.3,153.9,108.3,153.9,108.2L153.9,108.2z M137,80.2c0.9-0.5,1.1-1.6,0.6-2.5l-2-3.2c-0.6-0.8-1.7-1-2.5-0.5
	c-0.7,0.5-1,1.5-0.6,2.3l1.9,3.2C135,80.4,136.1,80.7,137,80.2L137,80.2z M117.3,58.2c0.9-0.5,1.1-1.6,0.6-2.5l-2.3-3.8
	c-0.5-0.9-1.6-1.1-2.5-0.6s-1.1,1.6-0.6,2.5l2.3,3.8C115.3,58.4,116.5,58.7,117.3,58.2z M103,62.8c0.5,0.1,0.9,0,1.3-0.2
	c0.9-0.5,1.1-1.6,0.6-2.5c-0.3-0.4-0.7-0.7-1.2-0.8l-1-0.2c-1-0.2-2,0.4-2.2,1.4s0.4,2,1.4,2.2l0,0L103,62.8z M111.3,64.9
	c0.5,0.1,1,0.1,1.4-0.2c0.4-0.3,0.7-0.7,0.8-1.1c0.2-1-0.4-2-1.3-2.2l-3.3-0.8c-1-0.2-2,0.4-2.2,1.3s0.4,2,1.3,2.2l0,0L111.3,64.9z
	 M114.6,70c-0.5-0.9-1.6-1.1-2.5-0.6l-3.8,2.3c-0.8,0.6-1,1.7-0.5,2.5c0.5,0.7,1.5,1,2.3,0.6l3.8-2.3C114.9,72,115.1,70.9,114.6,70
	L114.6,70L114.6,70z M117.8,75.2l-1.1,4.3c-0.2,1,0.3,2,1.3,2.2c0.5,0.1,1,0,1.4-0.2s0.7-0.7,0.8-1.1l1.1-4.3c0.2-1-0.4-2-1.4-2.2
	C119,73.7,118,74.2,117.8,75.2z M129.2,60.9c0.5,0.9,1.6,1.1,2.5,0.6l2.6-1.5c0.8-0.6,1-1.7,0.5-2.5c-0.5-0.7-1.5-1-2.3-0.6
	l-2.6,1.5C128.9,58.9,128.7,60,129.2,60.9L129.2,60.9L129.2,60.9z M138.9,57.2l0.8-0.5c0.9-0.5,1.1-1.6,0.6-2.5s-1.6-1.1-2.5-0.6
	l0,0l-0.8,0.5c-0.9,0.5-1.1,1.6-0.6,2.5C136.9,57.4,138,57.7,138.9,57.2L138.9,57.2L138.9,57.2z M125.2,56.9
	c0.4-0.3,0.7-0.7,0.8-1.1l1.1-4.3c0.2-1-0.4-2-1.4-2.2c-0.9-0.2-1.9,0.4-2.1,1.3l-1.1,4.3c-0.2,1,0.3,2,1.3,2.2
	C124.3,57.2,124.8,57.1,125.2,56.9L125.2,56.9z"/>
</svg>
