<svg xmlns="http://www.w3.org/2000/svg" viewBox="0 0 435.79 512"><defs><style>.cls-1{fill:#fff;}</style></defs><title>Asset 2</title><g id="Layer_2" data-name="Layer 2"><g id="Layer_1-2" data-name="Layer 1"><path class="cls-1" d="M196.26,247.48h85.33v17.07H196.26Z"/><path class="cls-1" d="M196.26,281.61h51.2v17.07h-51.2Z"/><path class="cls-1" d="M428.07,420.7,384,376.57v-239a5.17,5.17,0,0,0-.11-.54,8.18,8.18,0,0,0-.43-2.19,7.77,7.77,0,0,0-.31-.8,8.68,8.68,0,0,0-1.71-2.5l-128.9-129A8.15,8.15,0,0,0,250,.82c-.25-.1-.49-.19-.74-.27a8.61,8.61,0,0,0-2.31-.46c-.16,0-.31-.09-.47-.09H76.8a8.53,8.53,0,0,0-8.53,8.54V68.27H42.67a8.53,8.53,0,0,0-8.54,8.53v34.13H8.54A8.53,8.53,0,0,0,0,119.46v384A8.53,8.53,0,0,0,8.54,512H298.65a8.53,8.53,0,0,0,8.54-8.53V469.34h25.6a8.53,8.53,0,0,0,8.53-8.54V426.67h24.13l28.3,28.3a24.27,24.27,0,0,0,35.54-33.05C428.89,421.49,428.49,421.09,428.07,420.7ZM255,29.16l49.91,49.91L354.85,129H255Zm35.1,465.77h-273V128H34.13V460.8a8.54,8.54,0,0,0,8.54,8.54H290.12Zm34.13-42.66H51.2V85.36H68.27V418.14a8.53,8.53,0,0,0,8.53,8.53H324.25ZM85.33,409.61V17.09H238V137.52a8.53,8.53,0,0,0,8.53,8.53H366.92V359.5l-33.13-33.12a110.41,110.41,0,1,0-32.68,35.94l47.28,47.29Zm152.74-44.38a93,93,0,1,1,93-93A93,93,0,0,1,238.07,365.23ZM410.91,445a7.14,7.14,0,0,1-5.12-2.12l-90.38-90.4,10.19-10.18,41.32,41.31V384h.37L416,432.72a7.21,7.21,0,0,1-5.12,12.3Z"/></g></g></svg>